<svg width="231" height="134" xmlns="http://www.w3.org/2000/svg">

 <g>
  <title>background</title>
  <rect fill="none" id="canvas_background" height="402" width="582" y="-1" x="-1"/>
 </g>
 <g>
  <title>Layer 1</title>
  <path id="svg_1" fill="#999591" d="m55.0285,124.761l0,-0.869l3.5913,0l0,0.869l-1.1193,0.192l0,3.442l4.848,0l0,-3.442l-1.1193,-0.192l0,-0.869l3.5913,0l0,0.869l-1.1193,0.192l0,7.849l1.1193,0.192l0,0.862l-3.5913,0l0,-0.862l1.1193,-0.192l0,-3.346l-4.848,0l0,3.346l1.1193,0.192l0,0.862l-3.5913,0l0,-0.862l1.1193,-0.192l0,-7.849l-1.1193,-0.192z"/>
  <path id="svg_2" fill="#999591" d="m70.8083,133.856c-0.0412,-0.2 -0.0732,-0.381 -0.0961,-0.54c-0.0229,-0.16 -0.0389,-0.32 -0.0481,-0.479c-0.2609,0.333 -0.5882,0.611 -0.9819,0.834c-0.3891,0.219 -0.8057,0.329 -1.2498,0.329c-0.7736,0 -1.3619,-0.187 -1.7647,-0.561c-0.4029,-0.379 -0.6043,-0.91 -0.6043,-1.595c0,-0.702 0.2838,-1.243 0.8515,-1.622c0.5722,-0.383 1.355,-0.575 2.3484,-0.575l1.394,0l0,-0.862c0,-0.433 -0.1374,-0.776 -0.412,-1.026c-0.2747,-0.256 -0.657,-0.384 -1.1468,-0.384c-0.3387,0 -0.6386,0.044 -0.8995,0.13c-0.2564,0.087 -0.4647,0.206 -0.6249,0.356l-0.1442,0.78l-1.0438,0l0,-1.437c0.3388,-0.269 0.7485,-0.483 1.2292,-0.643c0.4807,-0.164 1.0025,-0.246 1.5656,-0.246c0.8423,0 1.5244,0.214 2.0463,0.643c0.5219,0.429 0.7828,1.042 0.7828,1.841l0,3.565c0,0.096 0,0.19 0,0.281c0.0046,0.091 0.0115,0.182 0.0206,0.274l0.5494,0.075l0,0.862l-1.7717,0zm-2.1767,-0.985c0.4486,0 0.8583,-0.107 1.2291,-0.322c0.3708,-0.214 0.6363,-0.472 0.7966,-0.773l0,-1.218l-1.4421,0c-0.5539,0 -0.9933,0.127 -1.3184,0.383c-0.3204,0.255 -0.4806,0.566 -0.4806,0.931c0,0.324 0.1007,0.572 0.3021,0.746c0.2014,0.168 0.5058,0.253 0.9133,0.253z"/>
  <path id="svg_3" fill="#999591" d="m73.7061,132.994l1.1193,-0.192l0,-5.29l-1.1193,-0.191l0,-0.87l2.4721,0l0,6.351l1.1193,0.192l0,0.862l-3.5914,0l0,-0.862zm2.4721,-8.438l-1.3528,0l0,-1.376l1.3528,0l0,1.376z"/>
  <path id="svg_4" fill="#999591" d="m78.3343,127.321l0,-0.87l2.3279,0l0.1304,1.075c0.2106,-0.379 0.4693,-0.675 0.776,-0.89c0.3113,-0.214 0.6661,-0.321 1.0643,-0.321c0.1053,0 0.2129,0.009 0.3228,0.027c0.1144,0.014 0.2014,0.03 0.2609,0.048l-0.1785,1.252l-0.7691,-0.041c-0.3571,0 -0.6569,0.085 -0.8995,0.253c-0.2427,0.165 -0.4304,0.397 -0.5631,0.698l0,4.25l1.1193,0.192l0,0.862l-3.5914,0l0,-0.862l1.1193,-0.192l0,-5.29l-1.1193,-0.191z"/>
  <path id="svg_5" fill="#999591" d="m87.3573,132.946c0.4486,0 0.8423,-0.137 1.1811,-0.411c0.3433,-0.278 0.515,-0.618 0.515,-1.019l1.2154,0l0.0137,0.041c0.0229,0.639 -0.2632,1.207 -0.8583,1.704c-0.5905,0.493 -1.2795,0.739 -2.0669,0.739c-1.0804,0 -1.9067,-0.351 -2.4789,-1.054c-0.5677,-0.703 -0.8515,-1.585 -0.8515,-2.648l0,-0.288c0,-1.054 0.2861,-1.932 0.8584,-2.635c0.5722,-0.707 1.3962,-1.06 2.472,-1.06c0.5951,0 1.1284,0.098 1.6,0.294c0.476,0.196 0.8697,0.465 1.181,0.807l0.0618,1.643l-1.078,0l-0.2953,-1.164c-0.1602,-0.155 -0.3662,-0.28 -0.618,-0.376c-0.2518,-0.096 -0.5356,-0.144 -0.8515,-0.144c-0.7096,0 -1.2177,0.256 -1.5244,0.767c-0.3022,0.506 -0.4532,1.129 -0.4532,1.868l0,0.288c0,0.757 0.151,1.389 0.4532,1.895c0.3021,0.502 0.8102,0.753 1.5244,0.753z"/>
  <path id="svg_6" fill="#999591" d="m96.9159,132.761c-0.2335,0.397 -0.5357,0.703 -0.9065,0.917c-0.3662,0.215 -0.7896,0.322 -1.2703,0.322c-0.8057,0 -1.4352,-0.258 -1.8884,-0.773c-0.4532,-0.516 -0.6798,-1.319 -0.6798,-2.409l0,-3.306l-0.8515,-0.191l0,-0.87l2.2043,0l0,4.38c0,0.79 0.1167,1.333 0.3502,1.629c0.2334,0.297 0.5974,0.445 1.0918,0.445c0.4807,0 0.8767,-0.096 1.1879,-0.287c0.3159,-0.197 0.554,-0.473 0.7142,-0.829l0,-4.277l-0.9957,-0.191l0,-0.87l2.3484,0l0,6.351l0.8515,0.192l0,0.862l-2.0669,0l-0.0892,-1.095z"/>
  <path id="svg_7" fill="#999591" d="m102.505,124.665l0,1.786l1.408,0l0,1l-1.408,0l0,4.496c0,0.347 0.071,0.591 0.213,0.732c0.147,0.142 0.339,0.212 0.577,0.212c0.119,0 0.252,-0.009 0.398,-0.027c0.151,-0.023 0.277,-0.046 0.378,-0.069l0.185,0.924c-0.128,0.083 -0.315,0.149 -0.563,0.199c-0.247,0.055 -0.494,0.082 -0.741,0.082c-0.55,0 -0.987,-0.164 -1.312,-0.493c-0.325,-0.333 -0.487,-0.853 -0.487,-1.56l0,-4.496l-1.1746,0l0,-1l1.1746,0l0,-1.786l1.352,0z"/>
  <path id="svg_8" fill="#999591" d="m110.979,128.778l-1.016,0l-0.22,-0.889c-0.165,-0.156 -0.373,-0.279 -0.625,-0.37c-0.247,-0.096 -0.529,-0.144 -0.844,-0.144c-0.481,0 -0.838,0.105 -1.072,0.315c-0.233,0.21 -0.35,0.463 -0.35,0.76c0,0.292 0.103,0.522 0.309,0.691c0.206,0.169 0.625,0.319 1.257,0.452c0.938,0.2 1.636,0.474 2.094,0.821c0.458,0.342 0.687,0.803 0.687,1.382c0,0.657 -0.268,1.189 -0.804,1.595c-0.531,0.406 -1.227,0.609 -2.087,0.609c-0.563,0 -1.069,-0.064 -1.518,-0.192c-0.448,-0.132 -0.849,-0.321 -1.201,-0.568l-0.007,-1.69l1.016,0l0.254,0.992c0.156,0.142 0.366,0.244 0.632,0.308c0.27,0.064 0.545,0.096 0.824,0.096c0.481,0 0.856,-0.096 1.126,-0.287c0.275,-0.197 0.412,-0.452 0.412,-0.767c0,-0.296 -0.114,-0.541 -0.343,-0.732c-0.225,-0.192 -0.653,-0.358 -1.284,-0.5c-0.902,-0.196 -1.582,-0.463 -2.04,-0.8c-0.458,-0.338 -0.687,-0.794 -0.687,-1.369c0,-0.602 0.257,-1.116 0.77,-1.54c0.517,-0.424 1.188,-0.636 2.012,-0.636c0.563,0 1.068,0.073 1.517,0.219c0.449,0.146 0.822,0.349 1.119,0.609l0.069,1.635z"/>
  <path id="svg_9" fill="#999591" d="m115.861,131.174c0,-0.557 0.161,-1.043 0.481,-1.458c0.325,-0.42 0.808,-0.84 1.449,-1.259c-0.357,-0.452 -0.623,-0.854 -0.797,-1.205c-0.174,-0.356 -0.261,-0.721 -0.261,-1.095c0,-0.771 0.222,-1.364 0.666,-1.779c0.449,-0.42 1.065,-0.63 1.848,-0.63c0.723,0 1.311,0.208 1.764,0.623c0.454,0.415 0.68,0.915 0.68,1.499c0,0.447 -0.121,0.835 -0.364,1.163c-0.238,0.324 -0.593,0.657 -1.064,0.999l-0.749,0.548l2.335,2.799c0.188,-0.297 0.334,-0.625 0.44,-0.986c0.105,-0.36 0.158,-0.741 0.158,-1.143l1.208,0c0,0.598 -0.089,1.152 -0.268,1.663c-0.178,0.511 -0.437,0.97 -0.776,1.376l1.271,1.533l-0.014,0.034l-1.573,0l-0.583,-0.698c-0.366,0.274 -0.772,0.484 -1.216,0.63c-0.444,0.141 -0.904,0.212 -1.38,0.212c-0.993,0 -1.785,-0.262 -2.376,-0.787c-0.586,-0.525 -0.879,-1.205 -0.879,-2.039zm3.255,1.772c0.33,0 0.655,-0.055 0.975,-0.164c0.321,-0.114 0.623,-0.276 0.907,-0.486l-2.479,-2.977l-0.275,0.198c-0.416,0.311 -0.693,0.607 -0.831,0.89c-0.133,0.283 -0.199,0.538 -0.199,0.767c0,0.515 0.163,0.939 0.488,1.272c0.325,0.334 0.796,0.5 1.414,0.5zm-1.03,-6.803c0,0.242 0.062,0.495 0.186,0.76c0.123,0.26 0.309,0.545 0.556,0.856l0.947,-0.651c0.261,-0.173 0.438,-0.36 0.529,-0.561c0.096,-0.205 0.144,-0.431 0.144,-0.677c0,-0.279 -0.112,-0.525 -0.336,-0.739c-0.22,-0.215 -0.508,-0.322 -0.865,-0.322c-0.371,0 -0.657,0.13 -0.859,0.39c-0.201,0.256 -0.302,0.57 -0.302,0.944z"/>
  <path id="svg_10" fill="#999591" d="m135.439,126.835l-1.024,0l-0.254,-1.424c-0.206,-0.173 -0.48,-0.317 -0.824,-0.431c-0.343,-0.114 -0.741,-0.171 -1.195,-0.171c-0.718,0 -1.27,0.153 -1.654,0.458c-0.385,0.302 -0.577,0.696 -0.577,1.184c0,0.434 0.194,0.797 0.583,1.089c0.394,0.287 1.028,0.54 1.903,0.759c1.052,0.26 1.851,0.644 2.396,1.15c0.549,0.506 0.824,1.134 0.824,1.882c0,0.803 -0.33,1.449 -0.989,1.937c-0.654,0.488 -1.513,0.732 -2.575,0.732c-0.769,0 -1.453,-0.125 -2.053,-0.376c-0.595,-0.251 -1.08,-0.58 -1.456,-0.986l0,-1.855l1.017,0l0.26,1.431c0.261,0.214 0.573,0.39 0.934,0.527c0.362,0.137 0.795,0.205 1.298,0.205c0.682,0 1.22,-0.144 1.614,-0.431c0.398,-0.288 0.597,-0.678 0.597,-1.17c0,-0.457 -0.171,-0.838 -0.515,-1.143c-0.343,-0.311 -0.95,-0.571 -1.819,-0.78c-1.058,-0.251 -1.884,-0.621 -2.479,-1.109c-0.595,-0.488 -0.893,-1.102 -0.893,-1.841c0,-0.78 0.332,-1.428 0.996,-1.944c0.663,-0.52 1.526,-0.78 2.588,-0.78c0.701,0 1.337,0.121 1.909,0.363c0.577,0.237 1.04,0.527 1.388,0.869l0,1.855z"/>
  <path id="svg_11" fill="#999591" d="m136.709,132.994l1.119,-0.192l0,-8.561l-1.119,-0.192l0,-0.869l2.472,0l0,4.257c0.256,-0.356 0.57,-0.632 0.941,-0.828c0.37,-0.196 0.782,-0.294 1.236,-0.294c0.796,0 1.414,0.237 1.854,0.711c0.439,0.475 0.659,1.205 0.659,2.19l0,3.586l1.119,0.192l0,0.862l-3.591,0l0,-0.862l1.119,-0.192l0,-3.599c0,-0.612 -0.133,-1.063 -0.398,-1.355c-0.261,-0.292 -0.652,-0.438 -1.174,-0.438c-0.371,0 -0.71,0.088 -1.017,0.266c-0.302,0.174 -0.551,0.411 -0.748,0.712l0,4.414l1.119,0.192l0,0.862l-3.591,0l0,-0.862z"/>
  <path id="svg_12" fill="#999591" d="m150.82,133.856c-0.041,-0.2 -0.073,-0.381 -0.096,-0.54c-0.023,-0.16 -0.039,-0.32 -0.048,-0.479c-0.261,0.333 -0.588,0.611 -0.982,0.834c-0.389,0.219 -0.806,0.329 -1.25,0.329c-0.773,0 -1.362,-0.187 -1.765,-0.561c-0.402,-0.379 -0.604,-0.91 -0.604,-1.595c0,-0.702 0.284,-1.243 0.852,-1.622c0.572,-0.383 1.355,-0.575 2.348,-0.575l1.394,0l0,-0.862c0,-0.433 -0.137,-0.776 -0.412,-1.026c-0.275,-0.256 -0.657,-0.384 -1.147,-0.384c-0.338,0 -0.638,0.044 -0.899,0.13c-0.257,0.087 -0.465,0.206 -0.625,0.356l-0.144,0.78l-1.044,0l0,-1.437c0.339,-0.269 0.748,-0.483 1.229,-0.643c0.481,-0.164 1.003,-0.246 1.566,-0.246c0.842,0 1.524,0.214 2.046,0.643c0.522,0.429 0.783,1.042 0.783,1.841l0,3.565c0,0.096 0,0.19 0,0.281c0.004,0.091 0.011,0.182 0.02,0.274l0.55,0.075l0,0.862l-1.772,0zm-2.177,-0.985c0.449,0 0.859,-0.107 1.229,-0.322c0.371,-0.214 0.637,-0.472 0.797,-0.773l0,-1.218l-1.442,0c-0.554,0 -0.993,0.127 -1.318,0.383c-0.321,0.255 -0.481,0.566 -0.481,0.931c0,0.324 0.101,0.572 0.302,0.746c0.201,0.168 0.506,0.253 0.913,0.253z"/>
  <path id="svg_13" fill="#999591" d="m156.156,127.321l-0.893,0.136l1.531,4.216l0.124,0.534l0.041,0l0.13,-0.534l1.484,-4.216l-0.9,-0.136l0,-0.87l2.87,0l0,0.87l-0.611,0.102l-2.492,6.433l-1.023,0l-2.521,-6.433l-0.611,-0.102l0,-0.87l2.871,0l0,0.87z"/>
  <path id="svg_14" fill="#999591" d="m164.76,134c-1.035,0 -1.859,-0.342 -2.472,-1.027c-0.609,-0.688 -0.914,-1.58 -0.914,-2.675l0,-0.302c0,-1.053 0.314,-1.929 0.941,-2.628c0.632,-0.702 1.378,-1.053 2.239,-1.053c0.998,0 1.753,0.301 2.266,0.903c0.517,0.602 0.776,1.405 0.776,2.409l0,0.842l-4.821,0l-0.02,0.034c0.013,0.712 0.194,1.298 0.542,1.759c0.348,0.456 0.836,0.684 1.463,0.684c0.457,0 0.858,-0.064 1.201,-0.192c0.348,-0.132 0.648,-0.312 0.9,-0.54l0.529,0.876c-0.266,0.255 -0.618,0.472 -1.058,0.65c-0.435,0.173 -0.959,0.26 -1.572,0.26zm-0.206,-6.625c-0.454,0 -0.84,0.192 -1.161,0.575c-0.32,0.379 -0.517,0.856 -0.59,1.431l0.013,0.034l3.427,0l0,-0.178c0,-0.529 -0.142,-0.972 -0.426,-1.328c-0.284,-0.356 -0.705,-0.534 -1.263,-0.534z"/>
  <path id="svg_15" fill="#999591" d="m174.62,128.778l-1.016,0l-0.22,-0.889c-0.164,-0.156 -0.373,-0.279 -0.625,-0.37c-0.247,-0.096 -0.528,-0.144 -0.844,-0.144c-0.481,0 -0.838,0.105 -1.071,0.315c-0.234,0.21 -0.351,0.463 -0.351,0.76c0,0.292 0.103,0.522 0.309,0.691c0.206,0.169 0.625,0.319 1.257,0.452c0.939,0.2 1.637,0.474 2.094,0.821c0.458,0.342 0.687,0.803 0.687,1.382c0,0.657 -0.268,1.189 -0.803,1.595c-0.531,0.406 -1.227,0.609 -2.088,0.609c-0.563,0 -1.069,-0.064 -1.517,-0.192c-0.449,-0.132 -0.85,-0.321 -1.202,-0.568l-0.007,-1.69l1.016,0l0.254,0.992c0.156,0.142 0.367,0.244 0.632,0.308c0.27,0.064 0.545,0.096 0.824,0.096c0.481,0 0.856,-0.096 1.126,-0.287c0.275,-0.197 0.412,-0.452 0.412,-0.767c0,-0.296 -0.114,-0.541 -0.343,-0.732c-0.224,-0.192 -0.652,-0.358 -1.284,-0.5c-0.902,-0.196 -1.582,-0.463 -2.039,-0.8c-0.458,-0.338 -0.687,-0.794 -0.687,-1.369c0,-0.602 0.256,-1.116 0.769,-1.54c0.517,-0.424 1.188,-0.636 2.012,-0.636c0.563,0 1.069,0.073 1.517,0.219c0.449,0.146 0.822,0.349 1.12,0.609l0.068,1.635z"/>
  <path id="svg_16" fill="#999591" d="m83.1411,9.10207l0.7416,-0.10265l3.4952,-8.99942l1.1605,0l3.4334,8.99942l0.7347,0.10265l0,0.86231l-2.8703,0l0,-0.86231l0.7554,-0.13003l-0.6592,-1.8341l-4.0034,0l-0.6798,1.8341l0.7554,0.13003l0,0.86231l-2.8635,0l0,-0.86231zm3.2068,-3.09333l3.1725,0l-1.5519,-4.27729l-0.0412,0l-1.5794,4.27729z"/>
  <path id="svg_17" fill="#999591" d="m95.4601,3.42868l-0.8515,0.15056l0.9683,3.68873l0.1579,0.89652l0.0412,0l0.1923,-0.89652l1.4832,-4.70844l1.0849,0l1.4906,4.70844l0.212,0.99918l0.042,0l0.199,-0.99918l0.913,-3.68873l-0.865,-0.15056l0,-0.86915l2.829,0l0,0.86915l-0.646,0.09581l-1.874,6.43989l-1.092,0l-1.442,-4.50998l-0.309,-1.24555l-0.0412,0.00685l-0.2884,1.2387l-1.4146,4.50998l-1.0918,0l-1.8746,-6.43989l-0.6524,-0.09581l0,-0.86915l2.8291,0l0,0.86915z"/>
  <path id="svg_18" fill="#999591" d="m107.848,10.1081c-1.035,0 -1.859,-0.34219 -2.472,-1.02656c-0.609,-0.68893 -0.914,-1.58088 -0.914,-2.67587l0,-0.30112c0,-1.05393 0.314,-1.92991 0.941,-2.62797c0.632,-0.70261 1.378,-1.05392 2.239,-1.05392c0.998,0 1.753,0.30112 2.266,0.90336c0.517,0.60224 0.776,1.40523 0.776,2.40897l0,0.84177l-4.821,0l-0.02,0.03422c0.013,0.71174 0.194,1.29802 0.542,1.75882c0.348,0.45625 0.836,0.68437 1.463,0.68437c0.458,0 0.858,-0.06387 1.201,-0.19162c0.348,-0.13231 0.648,-0.31253 0.9,-0.54065l0.529,0.87599c-0.266,0.25549 -0.618,0.47221 -1.058,0.65014c-0.435,0.17337 -0.959,0.26007 -1.572,0.26007zm-0.206,-6.62467c-0.453,0 -0.84,0.19162 -1.161,0.57486c-0.32,0.37869 -0.517,0.85546 -0.59,1.43033l0.014,0.03422l3.426,0l0,-0.17794c0,-0.52924 -0.142,-0.9718 -0.426,-1.32767c-0.284,-0.35587 -0.705,-0.5338 -1.263,-0.5338z"/>
  <path id="svg_19" fill="#999591" d="m117.708,4.88638l-1.016,0l-0.22,-0.88968c-0.164,-0.15512 -0.373,-0.27831 -0.624,-0.36956c-0.248,-0.09581 -0.529,-0.14371 -0.845,-0.14371c-0.481,0 -0.838,0.10493 -1.071,0.3148c-0.234,0.20988 -0.35,0.46309 -0.35,0.75965c0,0.292 0.103,0.5224 0.309,0.69121c0.206,0.16881 0.624,0.31937 1.256,0.45168c0.939,0.20075 1.637,0.4745 2.095,0.82124c0.457,0.34219 0.686,0.80299 0.686,1.38242c0,0.657 -0.268,1.18852 -0.803,1.59458c-0.531,0.40605 -1.227,0.60909 -2.088,0.60909c-0.563,0 -1.069,-0.0639 -1.517,-0.19163c-0.449,-0.13231 -0.849,-0.32165 -1.202,-0.56802l-0.007,-1.69039l1.016,0l0.255,0.99233c0.155,0.14144 0.366,0.24409 0.631,0.30797c0.27,0.06387 0.545,0.09581 0.824,0.09581c0.481,0 0.856,-0.09581 1.126,-0.28743c0.275,-0.19619 0.412,-0.45169 0.412,-0.76649c0,-0.29656 -0.114,-0.54065 -0.343,-0.73228c-0.224,-0.19162 -0.652,-0.35815 -1.284,-0.49959c-0.902,-0.19618 -1.582,-0.46308 -2.039,-0.8007c-0.458,-0.33762 -0.687,-0.79387 -0.687,-1.36874c0,-0.60224 0.256,-1.11551 0.769,-1.53982c0.517,-0.42431 1.188,-0.63646 2.012,-0.63646c0.563,0 1.069,0.073 1.518,0.21899c0.448,0.146 0.821,0.34903 1.119,0.60909l0.068,1.63564z"/>
  <path id="svg_20" fill="#999591" d="m119.199,6.19352c0,-1.09499 0.297,-1.99607 0.892,-2.70325c0.595,-0.71174 1.403,-1.06761 2.424,-1.06761c1.026,0 1.836,0.35359 2.431,1.06077c0.6,0.70717 0.9,1.61054 0.9,2.71009l0,0.15056c0,1.10411 -0.298,2.00747 -0.893,2.71009c-0.595,0.70262 -1.403,1.05393 -2.424,1.05393c-1.03,0 -1.843,-0.35131 -2.438,-1.05393c-0.595,-0.70718 -0.892,-1.61054 -0.892,-2.71009l0,-0.15056zm1.352,0.15056c0,0.78474 0.165,1.4326 0.495,1.9436c0.334,0.51099 0.828,0.76649 1.483,0.76649c0.641,0 1.128,-0.2555 1.463,-0.76649c0.334,-0.511 0.501,-1.15886 0.501,-1.9436l0,-0.15056c0,-0.77562 -0.167,-1.4212 -0.501,-1.93676c-0.335,-0.51556 -0.827,-0.77333 -1.477,-0.77333c-0.65,0 -1.14,0.25777 -1.469,0.77333c-0.33,0.51556 -0.495,1.16114 -0.495,1.93676l0,0.15056z"/>
  <path id="svg_21" fill="#999591" d="m126.821,9.10207l1.119,-0.19162l0,-5.29015l-1.119,-0.19162l0,-0.86915l2.334,0l0.09,0.96496c0.238,-0.35131 0.544,-0.62278 0.92,-0.8144c0.375,-0.19162 0.81,-0.28743 1.305,-0.28743c0.494,0 0.917,0.11406 1.27,0.34218c0.357,0.22812 0.625,0.57031 0.803,1.02655c0.234,-0.41974 0.543,-0.7528 0.927,-0.99917c0.385,-0.24638 0.833,-0.36956 1.346,-0.36956c0.76,0 1.36,0.26006 1.799,0.78018c0.44,0.51555 0.66,1.29345 0.66,2.33369l0,3.37392l1.119,0.19162l0,0.86231l-3.598,0l0,-0.86231l1.119,-0.19162l0,-3.38761c0,-0.72999 -0.126,-1.24555 -0.378,-1.54667c-0.252,-0.30568 -0.625,-0.45853 -1.119,-0.45853c-0.472,0 -0.852,0.16653 -1.14,0.49959c-0.284,0.3285 -0.449,0.74368 -0.494,1.24555l0,3.64767l1.119,0.19162l0,0.86231l-3.591,0l0,-0.86231l1.119,-0.19162l0,-3.38761c0,-0.69349 -0.131,-1.19992 -0.392,-1.5193c-0.256,-0.32393 -0.629,-0.4859 -1.119,-0.4859c-0.412,0 -0.751,0.08441 -1.016,0.25322c-0.266,0.16881 -0.469,0.40606 -0.611,0.71174l0,4.42785l1.119,0.19162l0,0.86231l-3.591,0l0,-0.86231z"/>
  <path id="svg_22" fill="#999591" d="m143.706,10.1081c-1.034,0 -1.858,-0.34219 -2.472,-1.02656c-0.609,-0.68893 -0.913,-1.58088 -0.913,-2.67587l0,-0.30112c0,-1.05393 0.313,-1.92991 0.941,-2.62797c0.631,-0.70261 1.378,-1.05392 2.238,-1.05392c0.998,0 1.753,0.30112 2.266,0.90336c0.517,0.60224 0.776,1.40523 0.776,2.40897l0,0.84177l-4.82,0l-0.021,0.03422c0.014,0.71174 0.195,1.29802 0.543,1.75882c0.347,0.45625 0.835,0.68437 1.462,0.68437c0.458,0 0.858,-0.06387 1.202,-0.19162c0.348,-0.13231 0.648,-0.31253 0.899,-0.54065l0.529,0.87599c-0.265,0.25549 -0.618,0.47221 -1.057,0.65014c-0.435,0.17337 -0.959,0.26007 -1.573,0.26007zm-0.206,-6.62467c-0.453,0 -0.84,0.19162 -1.16,0.57486c-0.321,0.37869 -0.518,0.85546 -0.591,1.43033l0.014,0.03422l3.426,0l0,-0.17794c0,-0.52924 -0.142,-0.9718 -0.425,-1.32767c-0.284,-0.35587 -0.705,-0.5338 -1.264,-0.5338z"/>
  <rect id="svg_23" fill="#FF9000" height="2.00226" width="230.033" y="106.073"/>
  <rect id="svg_24" fill="#FF9000" height="2.00226" width="230.033" y="25.9825"/>
  <path id="svg_25" fill="#6d6d6d" d="m52.95672,64.8023l0,14.0719c0,1.196 -0.2437,2.3359 -0.7313,3.4198c-0.45,1.0465 -1.0688,1.9622 -1.8563,2.7471c-0.7875,0.7849 -1.7251,1.4016 -2.8126,1.8501c-1.0501,0.4859 -2.1751,0.7288 -3.3752,0.7288c-1.2001,0 -2.3251,-0.2242 -3.3752,-0.6727c-1.05,-0.4485 -1.9688,-1.0465 -2.7564,-1.794c-0.7875,-0.7849 -1.425,-1.6819 -1.9125,-2.6911c-0.4501,-1.0465 -0.6938,-2.1678 -0.7313,-3.3638l0,-10.3717c-0.1125,-1.1586 -0.6376,-1.9996 -1.5751,-2.5228c0.525,-0.2617 1.05,-0.3925 1.5751,-0.3925l0,-13.2309c0.0375,-1.196 0.2812,-2.3173 0.7313,-3.3638c0.4875,-1.0465 1.125,-1.9435 1.9125,-2.6911c0.7876,-0.7848 1.7064,-1.4015 2.7564,-1.85c1.0501,-0.4486 2.1751,-0.6728 3.3752,-0.6728c1.2001,0 2.3251,0.2429 3.3752,0.7288c1.0875,0.4485 2.0251,1.0652 2.8126,1.8501c0.7875,0.7849 1.4063,1.7193 1.8563,2.8032c0.4876,1.0465 0.7313,2.1864 0.7313,3.4198c0,0.6354 0.0563,1.1026 0.1688,1.4016c0.15,0.299 0.3,0.542 0.45,0.7288c0.15,0.1869 0.2813,0.3551 0.3938,0.5046c0.15,0.1495 0.225,0.3924 0.225,0.7288l-2.9252,0c-0.6,-0.0747 -0.9,-0.3924 -0.9,-0.953c0,0.5606 -0.3,0.8783 -0.9001,0.953l-2.9813,0c0,-0.3364 0.0562,-0.5793 0.1687,-0.7288c0.15,-0.1495 0.3,-0.3177 0.45,-0.5046c0.15,-0.1868 0.2813,-0.4298 0.3938,-0.7288c0.15,-0.299 0.225,-0.7849 0.225,-1.4576l0,-0.0561c0,-0.4859 -0.0187,-1.0652 -0.0562,-1.738c-0.0375,-0.7101 -0.1688,-1.3829 -0.3938,-2.0182c-0.225,-0.6354 -0.5813,-1.1774 -1.0688,-1.6259c-0.4875,-0.4485 -1.1626,-0.6727 -2.0251,-0.6727c-0.9,0 -1.5938,0.2429 -2.0814,0.7288c-0.45,0.4485 -0.7875,0.9904 -1.0125,1.6258c-0.225,0.6354 -0.3563,1.3082 -0.3938,2.0183c-0.0375,0.7101 -0.0562,1.3081 -0.0562,1.794l0,13.0067c0.525,0 1.05,0.1308 1.575,0.3925c-0.9375,0.5232 -1.4625,1.3642 -1.575,2.5228l0,10.1475c0,0.4859 0.0187,1.0839 0.0562,1.794c0.0375,0.6728 0.1688,1.3455 0.3938,2.0183c0.225,0.6354 0.5625,1.1773 1.0125,1.6258c0.4876,0.4485 1.1814,0.6728 2.0814,0.6728c0.9,0 1.5751,-0.2243 2.0251,-0.6728c0.4875,-0.4485 0.8438,-0.9904 1.0688,-1.6258c0.225,-0.6728 0.3563,-1.3455 0.3938,-2.0183c0.0375,-0.7101 0.0562,-1.3081 0.0562,-1.794l0,-11.493c-0.4125,0.0374 -0.7688,0.2056 -1.0688,0.5046c-0.2625,0.299 -0.3938,0.654 -0.3938,1.0652l0,0.056c-0.0375,0.5607 -0.1875,1.0465 -0.45,1.4577c-0.225,0.3737 -0.5625,0.7101 -1.0125,1.0091c-0.45,0.2616 -1.1063,0.3925 -1.9689,0.3925l0,-7.064l10.1255,0zm-14.5132,-1.6259c0,-0.2242 -0.0187,-0.4485 -0.0562,-0.6727c0,-0.2243 0,-0.4298 0,-0.6167l0,-1.2895c-0.0375,-0.8222 -0.0563,-1.6071 -0.0563,-2.3546c0,-0.7475 -0.0187,-1.4577 -0.0562,-2.1304c-0.0375,-0.3364 -0.0563,-0.6354 -0.0563,-0.897c0,-0.2991 -0.0187,-0.5981 -0.0562,-0.8971c0,-0.2616 -0.0188,-0.5045 -0.0563,-0.7288c0,-0.2616 0,-0.4859 0,-0.6727c0,-0.1869 -0.0187,-0.3551 -0.0563,-0.5046c0,-0.1495 0,-0.2803 0,-0.3925l0,-0.2803c-0.0375,0 -0.0562,0.0187 -0.0562,0.0561l0,0.2242c0,0.1122 -0.0188,0.243 -0.0563,0.3925c0,0.1495 0,0.3177 0,0.5046c0,0.1868 -0.0187,0.4111 -0.0562,0.6727c0,0.2243 0,0.4672 0,0.7288c-0.0375,0.299 -0.0563,0.598 -0.0563,0.8971c0,0.2616 -0.0187,0.5606 -0.0562,0.897c-0.0375,0.6727 -0.0563,1.3829 -0.0563,2.1304c0,0.7475 -0.0187,1.5324 -0.0562,2.3546l0,1.2895c0,0.1869 -0.0188,0.3924 -0.0563,0.6167c0,0.2242 0,0.4485 0,0.6727l0,5.2139c0,0.1122 0,0.2243 0,0.3364c0.0375,0.1121 0.0563,0.2056 0.0563,0.2803l0,1.9062c0,0.4111 0,0.8222 0,1.2334c0.0375,0.3737 0.0562,0.7475 0.0562,1.1212c0,0.4112 0,0.8036 0,1.1774c0.0375,0.3363 0.0563,0.654 0.0563,0.953c0.0375,0.3364 0.0562,0.6541 0.0562,0.9531c0,0.299 0.0188,0.5793 0.0563,0.841c0,0.299 0,0.5606 0,0.7849c0.0375,0.2242 0.0562,0.4298 0.0562,0.6166c0,0.1869 0,0.3551 0,0.5046c0.0375,0.1495 0.0563,0.2803 0.0563,0.3925l0,0.2803c0,0.0374 0.0187,0.056 0.0562,0.056l0,-0.3363c0,-0.1122 0,-0.243 0,-0.3925c0.0376,-0.1495 0.0563,-0.3177 0.0563,-0.5046c0,-0.1868 0,-0.3924 0,-0.6166c0.0375,-0.2243 0.0563,-0.4859 0.0563,-0.7849c0.0375,-0.2617 0.0562,-0.542 0.0562,-0.841c0,-0.299 0.0188,-0.6167 0.0563,-0.9531c0,-0.299 0,-0.6167 0,-0.953c0.0375,-0.3738 0.0562,-0.7662 0.0562,-1.1774c0,-0.3737 0,-0.7475 0,-1.1212c0.0375,-0.4112 0.0563,-0.8223 0.0563,-1.2334l0,-1.2334c0,-0.299 0.0187,-0.5233 0.0562,-0.6728l0,-5.8306zm12.2631,8.1292c-0.0375,-0.3737 -0.0562,-0.7101 -0.0562,-1.0091c0,-0.3364 -0.0188,-0.6541 -0.0563,-0.9531c-0.0375,-0.5606 -0.0938,-1.0278 -0.1688,-1.4016c0,-0.0747 -0.0187,-0.1495 -0.0562,-0.2242c0,-0.0748 0,-0.1308 0,-0.1682l0,-0.1682l-0.0563,0.0561l0,0.1121c0,0.0374 -0.0187,0.0934 -0.0562,0.1682c0,0.0747 0,0.1495 0,0.2242c-0.075,0.3738 -0.1313,0.841 -0.1688,1.4016c-0.0375,0.299 -0.0562,0.6167 -0.0562,0.9531c0,0.299 -0.0188,0.6354 -0.0563,1.0091l0,0.5607c0,0.1121 -0.0187,0.2242 -0.0562,0.3363c0,0.0748 0,0.1495 0,0.2243l0,2.3546c0,0.1122 0.0187,0.2056 0.0562,0.2804l0,0.8409c0,0.1869 0,0.3551 0,0.5046c0.0375,0.1495 0.0563,0.3177 0.0563,0.5045c0,0.1869 0,0.3551 0,0.5046c0.0375,0.1495 0.0562,0.299 0.0562,0.4485c0.0375,0.1495 0.0563,0.299 0.0563,0.4485c0,0.1122 0.0187,0.2243 0.0562,0.3364c0,0.1121 0,0.2243 0,0.3364c0.0375,0.1121 0.0563,0.2056 0.0563,0.2803c0,0.0748 0,0.1495 0,0.2243c0.0375,0.0747 0.0562,0.1308 0.0562,0.1681l0,0.1122c0,0.0374 0.0188,0.056 0.0563,0.056l0,-0.1682c0,-0.0373 0,-0.0934 0,-0.1681c0.0375,-0.0748 0.0562,-0.1495 0.0562,-0.2243c0,-0.0747 0,-0.1682 0,-0.2803c0.0375,-0.1121 0.0563,-0.2243 0.0563,-0.3364c0.0375,-0.1121 0.0562,-0.2242 0.0562,-0.3364c0,-0.1495 0.0188,-0.299 0.0563,-0.4485c0,-0.1495 0,-0.299 0,-0.4485c0.0375,-0.1495 0.0563,-0.3177 0.0563,-0.5046c0,-0.1868 0,-0.355 0,-0.5045c0.0375,-0.1495 0.0562,-0.3177 0.0562,-0.5046l0,-0.5606c0,-0.1495 0.0188,-0.243 0.0563,-0.2803l0,-2.635c0,-0.0748 -0.0188,-0.1495 -0.0563,-0.2243c0,-0.1121 0,-0.2242 0,-0.3363l0,-0.5607z"/>
  <path id="svg_26" fill="#6d6d6d" d="m73.39232,65.8675c0.6375,0 1.1625,0.1308 1.575,0.3924c-0.4125,0.2617 -0.7687,0.6167 -1.0688,1.0652c-0.2625,0.4485 -0.4312,0.9344 -0.5062,1.4577l0,8.4655c-0.0375,1.1961 -0.3001,2.3173 -0.7876,3.3638c-0.45,1.0092 -1.0688,1.9062 -1.8563,2.6911c-0.7875,0.7475 -1.7063,1.3455 -2.7564,1.794c-1.05,0.4485 -2.1751,0.6728 -3.3752,0.6728c-1.2,0 -2.3251,-0.2243 -3.3751,-0.6728c-1.0501,-0.4485 -1.9689,-1.0465 -2.7564,-1.794c-0.7875,-0.7849 -1.4251,-1.6819 -1.9126,-2.6911c-0.45,-1.0465 -0.6938,-2.1677 -0.7313,-3.3638l0,-8.4655c-0.1125,-1.1587 -0.6375,-1.9996 -1.5751,-2.5229c0.4126,-0.2616 0.9376,-0.3924 1.5751,-0.3924l0,-10.8202c0.0375,-1.1587 0.2813,-2.2613 0.7313,-3.3078c0.4875,-1.0465 1.1251,-1.9435 1.9126,-2.691c0.7875,-0.7849 1.7063,-1.4016 2.7564,-1.8501c1.05,-0.4485 2.1751,-0.6728 3.3751,-0.6728c1.2001,0 2.3252,0.2243 3.3752,0.6728c1.0501,0.4485 1.9689,1.0652 2.7564,1.8501c0.7875,0.7475 1.4063,1.6445 1.8563,2.691c0.4875,1.0465 0.7501,2.1491 0.7876,3.3078l0,10.8202zm-14.5132,-2.0183c0,-0.1869 -0.0188,-0.3551 -0.0563,-0.5046c0,-0.1868 0,-0.3737 0,-0.5606l0,-1.0652c-0.0375,-0.7101 -0.0562,-1.3829 -0.0562,-2.0183c0,-0.6354 -0.0188,-1.2334 -0.0563,-1.794c-0.0375,-0.2616 -0.0562,-0.5233 -0.0562,-0.7849c0,-0.2616 -0.0188,-0.5046 -0.0563,-0.7288c0,-0.2243 -0.0187,-0.4298 -0.0562,-0.6167c0,-0.1869 0,-0.3551 0,-0.5046c0,-0.1869 -0.0188,-0.3364 -0.0563,-0.4485c0,-0.1495 0,-0.2616 0,-0.3364l0,-0.2803c-0.0375,0 -0.0563,0.0187 -0.0563,0.0561l0,0.2242c0,0.0748 -0.0187,0.1869 -0.0562,0.3364c0,0.1121 0,0.2616 0,0.4485c0,0.1495 -0.0188,0.3177 -0.0563,0.5046c0,0.1869 0,0.3924 0,0.6167c-0.0375,0.2242 -0.0562,0.4672 -0.0562,0.7288c0,0.2616 -0.0188,0.5233 -0.0563,0.7849c-0.0375,0.5606 -0.0562,1.1586 -0.0562,1.794c0,0.6354 -0.0188,1.3082 -0.0563,2.0183l0,1.0652c0,0.1869 -0.0187,0.3738 -0.0562,0.5606c0,0.1495 0,0.3177 0,0.5046l0,4.429c0,0.2616 0.0187,0.4485 0.0562,0.5606l0,1.6259c0,0.3364 0,0.6727 0,1.0091c0.0375,0.3364 0.0563,0.6541 0.0563,0.9531c0,0.3364 0,0.6541 0,0.9531c0.0375,0.2616 0.0562,0.5419 0.0562,0.8409c0.0375,0.299 0.0563,0.5793 0.0563,0.841c0,0.2242 0.0187,0.4485 0.0562,0.6727c0,0.2243 0,0.4298 0,0.6167c0.0375,0.1869 0.0563,0.3738 0.0563,0.5606c0,0.1869 0,0.3551 0,0.5046c0.0375,0.1121 0.0562,0.2056 0.0562,0.2803l0,0.1682c0,0.0374 0.0188,0.0561 0.0563,0.0561l0,-0.2243c0,-0.0747 0,-0.1682 0,-0.2803c0.0375,-0.1495 0.0563,-0.3177 0.0563,-0.5046c0,-0.1868 0,-0.3737 0,-0.5606c0.0375,-0.1869 0.0562,-0.3924 0.0562,-0.6167c0.0375,-0.2242 0.0563,-0.4485 0.0563,-0.6727c0,-0.2617 0.0187,-0.542 0.0562,-0.841c0,-0.299 0,-0.5793 0,-0.8409c0.0375,-0.299 0.0563,-0.6167 0.0563,-0.9531c0,-0.299 0,-0.6167 0,-0.9531c0.0375,-0.3364 0.0562,-0.6727 0.0562,-1.0091l0,-1.6259c0.0375,-0.1121 0.0563,-0.299 0.0563,-0.5606l0,-4.429zm9.2817,-8.5777c0,-0.4859 -0.0188,-1.0839 -0.0563,-1.794c-0.0375,-0.7101 -0.1687,-1.3829 -0.3938,-2.0183c-0.225,-0.6354 -0.5812,-1.1773 -1.0688,-1.6258c-0.45,-0.4859 -1.125,-0.7288 -2.0251,-0.7288c-0.9,0 -1.5938,0.2429 -2.0813,0.7288c-0.45,0.4485 -0.7875,0.9904 -1.0126,1.6258c-0.225,0.6354 -0.3562,1.3082 -0.3937,2.0183c-0.0375,0.7101 -0.0563,1.3081 -0.0563,1.794l0,10.596c0.6376,0 1.1626,0.1308 1.5751,0.3924c-0.9375,0.5233 -1.4626,1.3642 -1.5751,2.5229l0,8.2413c0,0.4859 0.0188,1.0839 0.0563,1.794c0.0375,0.6728 0.1687,1.3455 0.3937,2.0183c0.2251,0.6354 0.5626,1.1773 1.0126,1.6258c0.4875,0.4485 1.1813,0.6728 2.0813,0.6728c0.9001,0 1.5751,-0.2243 2.0251,-0.6728c0.4876,-0.4485 0.8438,-0.9904 1.0688,-1.6258c0.2251,-0.6728 0.3563,-1.3455 0.3938,-2.0183c0.0375,-0.7101 0.0563,-1.3081 0.0563,-1.794l0,-8.2413c-0.075,-1.1213 -0.6001,-1.9622 -1.5751,-2.5229c0.4125,-0.2616 0.9375,-0.3924 1.5751,-0.3924l0,-10.596zm3.0376,8.5777c0,-0.1869 0,-0.3551 0,-0.5046c0,-0.1868 -0.0187,-0.3737 -0.0562,-0.5606l0,-1.0652c0,-0.7101 -0.0188,-1.3829 -0.0563,-2.0183c0,-0.6354 -0.0187,-1.2334 -0.0563,-1.794c-0.0375,-0.2616 -0.0562,-0.5233 -0.0562,-0.7849c0,-0.2616 -0.0188,-0.5046 -0.0563,-0.7288c0,-0.2243 -0.0187,-0.4298 -0.0562,-0.6167c0,-0.1869 0,-0.3551 0,-0.5046c0,-0.1869 -0.0188,-0.3364 -0.0563,-0.4485c0,-0.1495 0,-0.2616 0,-0.3364l0,-0.2803c-0.0375,0 -0.0562,0.0187 -0.0562,0.0561l0,0.2242c0,0.0748 0,0.1869 0,0.3364c0,0.1121 -0.0188,0.2616 -0.0563,0.4485c0,0.1495 -0.0187,0.3177 -0.0562,0.5046c0,0.1869 0,0.3924 0,0.6167c-0.0375,0.2242 -0.0563,0.4672 -0.0563,0.7288c0,0.2616 -0.0187,0.5233 -0.0562,0.7849c-0.0375,0.5606 -0.0563,1.1586 -0.0563,1.794c0,0.6354 -0.0187,1.3082 -0.0562,2.0183l0,2.1304c-0.0375,0.3738 -0.0563,0.7475 -0.0563,1.1213c0,0.3737 0,0.7475 0,1.1212c0,0.3738 0,0.7475 0,1.1213c0,0.3364 0.0188,0.6914 0.0563,1.0652l0,2.1865c0,0.3364 0,0.6727 0,1.0091c0.0375,0.3364 0.0562,0.6541 0.0562,0.9531c0,0.3364 0,0.6541 0,0.9531c0.0375,0.2616 0.0563,0.5419 0.0563,0.8409c0.0375,0.299 0.0562,0.5793 0.0562,0.841c0,0.2242 0.0188,0.4485 0.0563,0.6727c0,0.2243 0,0.4298 0,0.6167c0.0375,0.1869 0.0562,0.3738 0.0562,0.5606c0.0375,0.1869 0.0563,0.3551 0.0563,0.5046c0,0.1121 0,0.2056 0,0.2803l0,0.1682c0,0.0374 0.0187,0.0561 0.0562,0.0561l0,-0.2243c0,-0.0747 0,-0.1682 0,-0.2803c0.0375,-0.1495 0.0563,-0.3177 0.0563,-0.5046c0,-0.1868 0,-0.3737 0,-0.5606c0.0375,-0.1869 0.0562,-0.3924 0.0562,-0.6167c0.0375,-0.2242 0.0563,-0.4485 0.0563,-0.6727c0,-0.2617 0.0187,-0.542 0.0562,-0.841c0,-0.299 0,-0.5793 0,-0.8409c0.0376,-0.299 0.0563,-0.6167 0.0563,-0.9531c0,-0.299 0,-0.6167 0,-0.9531c0.0375,-0.3364 0.0563,-0.6727 0.0563,-1.0091l0,-1.0652c0,-0.0748 0,-0.1682 0,-0.2803c0.0375,-0.1122 0.0562,-0.2056 0.0562,-0.2804l0,-4.9896z"/>
  <path id="svg_27" fill="#6d6d6d" d="m94.26732,58.6353c0,1.6819 -0.4125,3.1956 -1.2376,4.5411c-0.825,1.3456 -1.9313,2.3921 -3.3189,3.1396c0.6751,0.5232 1.2938,1.1399 1.8564,1.8501c0.5625,0.6727 1.0313,1.4202 1.4063,2.2425c0.4125,0.8223 0.7313,1.6632 0.9563,2.5229c0.225,0.8596 0.3375,1.7005 0.3375,2.5228l0,3.5881c-0.0375,1.196 -0.2813,2.3172 -0.7313,3.3638c-0.45,1.0091 -1.0688,1.9061 -1.8563,2.691c-0.7876,0.7475 -1.7064,1.3455 -2.7564,1.794c-1.0501,0.4859 -2.1751,0.7288 -3.3752,0.7288l-5.2877,0c-0.2625,0 -0.4876,-0.0934 -0.6751,-0.2803c-0.15,-0.1869 -0.225,-0.4111 -0.225,-0.6727c0,0.2616 -0.0937,0.4858 -0.2812,0.6727c-0.1876,0.1869 -0.3938,0.2803 -0.6188,0.2803l-2.9814,0c0,-0.3363 0.0562,-0.5793 0.1687,-0.7288c0.1501,-0.1495 0.3001,-0.3177 0.4501,-0.5045c0.15,-0.1496 0.2812,-0.3738 0.3937,-0.6728c0.15,-0.299 0.225,-0.7662 0.225,-1.4016l0,-15.6417c-0.1125,-1.1212 -0.6375,-1.9435 -1.575,-2.4667c0.4875,-0.299 1.0125,-0.4485 1.575,-0.4485l0,-18.4449c0,-0.6354 -0.075,-1.1025 -0.225,-1.4016c-0.1125,-0.299 -0.2437,-0.5232 -0.3937,-0.6727c-0.15,-0.1869 -0.3,-0.3551 -0.4501,-0.5046c-0.1125,-0.1495 -0.1687,-0.3924 -0.1687,-0.7288l2.9814,0c0.225,0 0.4312,0.0934 0.6188,0.2803c0.1875,0.1495 0.2812,0.3551 0.2812,0.6167c0,-0.598 0.3,-0.897 0.9001,-0.897l5.2877,0c1.2001,0 2.3251,0.2242 3.3752,0.6728c1.05,0.4485 1.9688,1.0652 2.7564,1.85c0.7875,0.7476 1.4063,1.6446 1.8563,2.6911c0.45,1.0465 0.6938,2.1491 0.7313,3.3077l0,6.1109zm-14.5132,4.1487c0,-0.2616 -0.0188,-0.5046 -0.0563,-0.7288c0,-0.2617 0,-0.5046 0,-0.7288l0,-1.4577c-0.0375,-0.9718 -0.0562,-1.8875 -0.0562,-2.7471c0,-0.8596 -0.0188,-1.6632 -0.0563,-2.4107c-0.0375,-0.4111 -0.0562,-0.7849 -0.0562,-1.1213c0,-0.3364 -0.0188,-0.6541 -0.0563,-0.9531c0,-0.299 -0.0187,-0.5793 -0.0562,-0.8409c0,-0.299 0,-0.542 0,-0.7288c0,-0.2243 -0.0188,-0.4298 -0.0563,-0.6167c0,-0.1869 0,-0.3364 0,-0.4485l0,-0.3364c-0.0375,0.0374 -0.0562,0.0747 -0.0562,0.1121l0,0.2243c0,0.1121 -0.0188,0.2616 -0.0563,0.4485c0,0.1869 0,0.3924 0,0.6167c0,0.1868 -0.0187,0.4298 -0.0562,0.7288c0,0.2616 0,0.5419 0,0.8409c-0.0375,0.299 -0.0563,0.6167 -0.0563,0.9531c0,0.3364 -0.0187,0.7102 -0.0562,1.1213c-0.0375,0.7475 -0.0563,1.5511 -0.0563,2.4107c0,0.8596 -0.0187,1.7753 -0.0562,2.7471l0,1.4577c0,0.2242 0,0.4671 0,0.7288c0,0.2242 -0.0188,0.4672 -0.0563,0.7288l0,5.9988c0,0.1495 0,0.2803 0,0.3924c0.0375,0.1121 0.0563,0.243 0.0563,0.3925l0,2.1304c0,0.4858 0,0.9717 0,1.4576c0.0375,0.4485 0.0562,0.8783 0.0562,1.2895c0,0.4111 0,0.8222 0,1.2334c0.0375,0.4111 0.0563,0.8222 0.0563,1.2333c0.0375,0.1869 0.0562,0.3738 0.0562,0.5607c0,0.1495 0,0.3177 0,0.5046c0,0.1868 0,0.355 0,0.5045c0.0375,0.1495 0.0563,0.299 0.0563,0.4485c0,0.299 0,0.598 0,0.897c0.0375,0.2617 0.0562,0.5046 0.0562,0.7289c0,0.2242 0,0.4298 0,0.6167c0.0375,0.1495 0.0563,0.2803 0.0563,0.3924l0,0.2803c0,0.0374 0.0187,0.0748 0.0562,0.1121l0,-0.3924c0,-0.1121 0,-0.2429 0,-0.3924c0.0375,-0.1869 0.0563,-0.3925 0.0563,-0.6167c0,-0.2243 0,-0.4672 0,-0.7289c0.0375,-0.299 0.0562,-0.598 0.0562,-0.897c0.0375,-0.1495 0.0563,-0.299 0.0563,-0.4485c0,-0.1495 0,-0.3177 0,-0.5045c0,-0.1869 0,-0.3551 0,-0.5046c0.0375,-0.1869 0.0562,-0.3738 0.0562,-0.5607c0,-0.4111 0,-0.8222 0,-1.2333c0.0375,-0.4112 0.0563,-0.8223 0.0563,-1.2334c0,-0.4112 0,-0.841 0,-1.2895c0.0375,-0.4859 0.0562,-0.9718 0.0562,-1.4576l0,-1.4016c0,-0.3364 0.0188,-0.5793 0.0563,-0.7288l0,-6.7837zm11.588,15.1371c-0.0375,0.1121 -0.0562,0.299 -0.0562,0.5606l0,1.0092c0,0.1868 -0.0188,0.355 -0.0563,0.5045c0,0.1495 0,0.299 0,0.4485c0,0.1495 -0.0187,0.2804 -0.0562,0.3925c0,0.1121 0,0.2242 0,0.3364l0,0.1682c-0.0375,0.0373 -0.0563,0.0934 -0.0563,0.1681l0,0.2804c-0.0375,0.0373 -0.0562,0.0747 -0.0562,0.1121l0,0.1121c0,0.0374 -0.0188,0.0748 -0.0563,0.1121c0,0 0,0.0187 0,0.0561c0,0.0374 -0.0187,0.0748 -0.0562,0.1121l0.0562,0c0,0 0.0188,-0.0373 0.0563,-0.1121c0,0 0.0187,-0.0374 0.0562,-0.1121c0.0375,-0.0374 0.0563,-0.0748 0.0563,-0.1122c0.0375,-0.0373 0.0562,-0.0747 0.0562,-0.1121c0.0375,-0.0374 0.0563,-0.0747 0.0563,-0.1121c0.0375,-0.0374 0.0562,-0.0934 0.0562,-0.1682c0.0751,-0.0747 0.1126,-0.1682 0.1126,-0.2803c0.075,-0.1495 0.15,-0.4111 0.225,-0.7849c0.075,-0.2243 0.1125,-0.3738 0.1125,-0.4485c0.0375,-0.0748 0.0562,-0.1495 0.0562,-0.2243c0,-0.1121 0.0188,-0.2055 0.0563,-0.2803c0,-0.0747 0,-0.1495 0,-0.2242c0.0375,-0.1122 0.0562,-0.2056 0.0562,-0.2803c0.0375,-0.1122 0.0563,-0.2804 0.0563,-0.5046c0.0375,-0.1869 0.0562,-0.3738 0.0562,-0.5606c0,-0.1869 0.0188,-0.3738 0.0563,-0.5607l0,-2.3546c0,-0.1869 -0.0188,-0.3738 -0.0563,-0.5607c0,-0.1868 -0.0187,-0.3737 -0.0562,-0.5606c0,-0.2243 -0.0188,-0.3924 -0.0563,-0.5046c0,-0.0747 -0.0187,-0.1495 -0.0562,-0.2242c0,-0.1122 0,-0.2056 0,-0.2803c-0.0375,-0.0748 -0.0563,-0.1495 -0.0563,-0.2243c0,-0.1121 -0.0187,-0.2056 -0.0562,-0.2803c0,-0.0748 -0.0188,-0.1495 -0.0563,-0.2243c0,-0.0747 0,-0.1495 0,-0.2242c-0.075,-0.2243 -0.1125,-0.3551 -0.1125,-0.3925c-0.0375,-0.1121 -0.0937,-0.2429 -0.1687,-0.3924c0,-0.1121 -0.0375,-0.2056 -0.1126,-0.2803c0,-0.1121 -0.0375,-0.2056 -0.1125,-0.2803c-0.075,-0.1495 -0.1312,-0.2617 -0.1687,-0.3364c-0.0375,-0.0374 -0.0563,-0.0748 -0.0563,-0.1121l-0.0562,0c0,0 0.0187,0.0373 0.0562,0.1121c0,0.0374 0,0.0747 0,0.1121c0.0375,0 0.0563,0.0187 0.0563,0.0561c0,0.0747 0.0187,0.1495 0.0562,0.2242l0,0.2803c0.0375,0.0748 0.0563,0.1682 0.0563,0.2804c0,0.1868 0.0187,0.3177 0.0562,0.3924l0,0.3924c0.0375,0.1495 0.0563,0.299 0.0563,0.4486c0,0.1495 0,0.3176 0,0.5045l0,0.5046c0,0.0747 0,0.1682 0,0.2803c0.0375,0.0748 0.0562,0.1495 0.0562,0.2243l0,3.9244zm-2.3063,-2.4668c0,-0.4859 -0.0188,-1.1773 -0.0563,-2.0743c-0.0375,-0.897 -0.1687,-1.7941 -0.3937,-2.6911c-0.225,-0.897 -0.5813,-1.6632 -1.0688,-2.2986c-0.4501,-0.6727 -1.1251,-1.0091 -2.0251,-1.0091l-2.0251,0c-0.4125,0 -0.7688,0.1495 -1.0688,0.4485c-0.3,0.299 -0.4501,0.6541 -0.4501,1.0652l0,14.5765c0,0.4111 0.1501,0.7662 0.4501,1.0652c0.3,0.2616 0.6563,0.4111 1.0688,0.4485l2.0251,0c0.9,0 1.575,-0.2243 2.0251,-0.6728c0.4875,-0.4859 0.8438,-1.0465 1.0688,-1.6819c0.225,-0.6354 0.3562,-1.3081 0.3937,-2.0183c0.0375,-0.7101 0.0563,-1.3081 0.0563,-1.794l0,-3.3638zm0,-22.7056c0,-0.4859 -0.0188,-1.0652 -0.0563,-1.738c-0.0375,-0.7101 -0.1687,-1.3829 -0.3937,-2.0183c-0.225,-0.6354 -0.5813,-1.1773 -1.0688,-1.6258c-0.4501,-0.4859 -1.1251,-0.7288 -2.0251,-0.7288l-2.0251,0c-0.4125,0 -0.7688,0.1495 -1.0688,0.4485c-0.3,0.299 -0.4501,0.654 -0.4501,1.0652l0,15.081c0,0.4111 0.1501,0.7662 0.4501,1.0652c0.3,0.299 0.6563,0.4485 1.0688,0.4485l2.0251,0c0.9,0 1.575,-0.2242 2.0251,-0.6727c0.4875,-0.4485 0.8438,-0.9905 1.0688,-1.6259c0.225,-0.6727 0.3562,-1.3455 0.3937,-2.0183c0.0375,-0.7101 0.0563,-1.3081 0.0563,-1.794l0,-5.8866zm2.5314,7.4003c0.075,-0.2242 0.1125,-0.3737 0.1125,-0.4485c0.075,-0.1495 0.1125,-0.299 0.1125,-0.4485c0.0375,-0.0747 0.0562,-0.1495 0.0562,-0.2242c0,-0.1122 0.0188,-0.2056 0.0563,-0.2804c0,-0.0747 0,-0.1495 0,-0.2242c0.0375,-0.1121 0.0562,-0.2243 0.0562,-0.3364c0.0375,-0.1121 0.0563,-0.299 0.0563,-0.5606c0.0375,-0.1869 0.0562,-0.3738 0.0562,-0.5607c0,-0.1868 0.0188,-0.3737 0.0563,-0.5606l0,-1.2334c0,-0.4111 0,-0.8036 0,-1.1773c0,-0.4111 -0.0188,-0.8036 -0.0563,-1.1773c-0.0375,-0.1122 -0.0562,-0.2056 -0.0562,-0.2804c0,-0.1121 -0.0188,-0.2055 -0.0563,-0.2803c0,-0.2616 -0.0187,-0.4485 -0.0562,-0.5606c-0.0375,-0.1869 -0.075,-0.3551 -0.1125,-0.5046c0,-0.1495 -0.0188,-0.299 -0.0563,-0.4485c-0.075,-0.2242 -0.1125,-0.3737 -0.1125,-0.4485c-0.075,-0.1495 -0.1125,-0.2616 -0.1125,-0.3364c-0.075,-0.1495 -0.1312,-0.2616 -0.1688,-0.3363c0,-0.1122 -0.0375,-0.2056 -0.1125,-0.2804c-0.0375,-0.1121 -0.0937,-0.2429 -0.1687,-0.3924l-0.1125,-0.1121l0,0.056c0,0.0374 0,0.0561 0,0.0561c0.0375,0 0.0562,0.0187 0.0562,0.0561c0.0375,0.0373 0.0563,0.0934 0.0563,0.1681c0,0.0748 0.0187,0.1495 0.0562,0.2243l0,0.2803c0.0375,0.0748 0.0563,0.1869 0.0563,0.3364c0,0.0747 0,0.1495 0,0.2242c0.0375,0.0374 0.0562,0.0935 0.0562,0.1682l0,0.3925c0.0375,0.1495 0.0563,0.299 0.0563,0.4485c0,0.1495 0,0.3177 0,0.5046l0,0.5606c0,0.0747 0,0.1682 0,0.2803c0.0375,0.0748 0.0562,0.1495 0.0562,0.2243l0,4.1486c-0.0375,0.1122 -0.0562,0.299 -0.0562,0.5607l0,1.0652c0,0.1869 -0.0188,0.355 -0.0563,0.5045c0,0.1496 0,0.2991 0,0.4486c0,0.1495 -0.0187,0.299 -0.0562,0.4485c0,0.1121 0,0.2242 0,0.3363c0,0.1869 -0.0188,0.299 -0.0563,0.3364l0,0.3364c-0.0375,0 -0.0562,0.0374 -0.0562,0.1121l0,0.1122c0,0.0373 -0.0188,0.0747 -0.0563,0.1121c0,0 0,0.0187 0,0.056c0,0.0374 -0.0187,0.0748 -0.0562,0.1122l0.1125,-0.1122c0,-0.0373 0,-0.056 0,-0.056c0.0375,-0.0374 0.0562,-0.0748 0.0562,-0.1121c0.0375,0 0.0563,-0.0374 0.0563,-0.1122c0.0375,0 0.0562,-0.0373 0.0562,-0.1121c0.0375,0 0.0563,-0.0374 0.0563,-0.1121c0.0375,-0.0374 0.0562,-0.0935 0.0562,-0.1682c0.0751,-0.0748 0.1126,-0.1682 0.1126,-0.2803c0.075,-0.2243 0.1125,-0.3551 0.1125,-0.3925z"/>
  <path id="svg_28" fill="#6d6d6d" d="m115.54442,82.4062c0.15,0.6353 0.319,1.1025 0.506,1.4015c0.188,0.299 0.375,0.542 0.563,0.7289c0.187,0.1868 0.356,0.355 0.506,0.5045c0.15,0.1495 0.263,0.3925 0.338,0.7289l-2.982,0c-0.262,0 -0.506,-0.0935 -0.731,-0.2804c-0.188,-0.1868 -0.3,-0.4111 -0.338,-0.6727c0.038,0.2616 -0.018,0.4859 -0.168,0.6727c-0.15,0.1869 -0.338,0.2804 -0.563,0.2804l-2.981,0c-0.075,-0.3364 -0.056,-0.5794 0.056,-0.7289c0.113,-0.1495 0.225,-0.299 0.338,-0.4485c0.112,-0.1869 0.206,-0.4298 0.281,-0.7288c0.075,-0.3364 0.056,-0.8409 -0.056,-1.5137l0,-0.0561l-1.238,-6.3351c-0.075,-0.3738 -0.281,-0.6915 -0.619,-0.9531c-0.337,-0.299 -0.712,-0.4485 -1.125,-0.4485l-3.881,0c-0.413,0 -0.788,0.1495 -1.125,0.4485c-0.338,0.2616 -0.544,0.5793 -0.619,0.9531l-1.181,6.3351l0,0.0561c-0.113,0.6728 -0.15,1.1773 -0.113,1.5137c0.075,0.299 0.169,0.5419 0.281,0.7288c0.15,0.1495 0.263,0.299 0.338,0.4485c0.112,0.1495 0.15,0.3925 0.112,0.7289l-2.9811,0c-0.2625,0 -0.4687,-0.0935 -0.6187,-0.2804c-0.15,-0.1868 -0.2063,-0.4111 -0.1688,-0.6727c-0.0375,0.2616 -0.15,0.4859 -0.3375,0.6727c-0.1875,0.1869 -0.4125,0.2804 -0.675,0.2804l-2.9814,0c0.0375,-0.3364 0.1312,-0.5794 0.2812,-0.7289c0.15,-0.1495 0.3188,-0.3177 0.5063,-0.5045c0.1875,-0.1869 0.375,-0.4299 0.5625,-0.7289c0.1875,-0.299 0.3563,-0.7662 0.5063,-1.4015l2.5314,-13.6234c0.075,-0.5233 0.0187,-1.0092 -0.1688,-1.4577c-0.1875,-0.4485 -0.4875,-0.8035 -0.9,-1.0652c0.6,-0.2616 1.1438,-0.3924 1.6313,-0.3924l3.0373,-15.9781c0.113,-0.6353 0.132,-1.1025 0.057,-1.4015c-0.075,-0.3364 -0.169,-0.5794 -0.282,-0.7289c-0.112,-0.1868 -0.225,-0.355 -0.337,-0.5045c-0.113,-0.1495 -0.131,-0.3925 -0.056,-0.7289l3.768,0c0.563,0.0748 0.844,0.3925 0.844,0.9531c0,-0.2616 0.075,-0.4672 0.225,-0.6167c0.188,-0.1869 0.394,-0.299 0.619,-0.3364l3.825,0c0.075,0.3364 0.057,0.5794 -0.056,0.7289c-0.075,0.1495 -0.169,0.3177 -0.281,0.5045c-0.113,0.1495 -0.207,0.3925 -0.282,0.7289c-0.075,0.299 -0.056,0.7662 0.057,1.4015l2.981,15.9781c0.3,0 0.581,0.0374 0.844,0.1121c0.262,0.0748 0.525,0.1682 0.787,0.2803c-0.825,0.5233 -1.181,1.3642 -1.068,2.5229l2.531,13.6234zm-13.501,-20.0707c0.075,-0.2243 0.113,-0.4298 0.113,-0.6167c0.037,-0.2243 0.075,-0.4298 0.112,-0.6167c0.188,-0.8596 0.338,-1.6632 0.45,-2.4107c0.113,-0.7849 0.225,-1.495 0.338,-2.1304c0.075,-0.299 0.112,-0.598 0.112,-0.897c0.038,-0.299 0.075,-0.598 0.113,-0.8971c0.037,-0.2616 0.075,-0.5045 0.112,-0.7288c0.038,-0.2242 0.075,-0.4298 0.113,-0.6167c0.037,-0.1868 0.056,-0.355 0.056,-0.5045c0,-0.1869 0.019,-0.3364 0.056,-0.4485l0,-0.2243l-0.056,0.2243c-0.037,0.1121 -0.075,0.2429 -0.112,0.3924c-0.038,0.1495 -0.075,0.3177 -0.113,0.5046c-0.075,0.1868 -0.131,0.4111 -0.169,0.6727c-0.037,0.2243 -0.093,0.4485 -0.168,0.6728c-0.075,0.299 -0.15,0.598 -0.225,0.897c-0.038,0.299 -0.094,0.598 -0.169,0.897c-0.188,0.6354 -0.375,1.3268 -0.563,2.0744c-0.15,0.7101 -0.318,1.495 -0.506,2.3546c0,0.2243 -0.019,0.4298 -0.056,0.6167c-0.038,0.1869 -0.094,0.3925 -0.169,0.6167c-0.037,0.2243 -0.075,0.4485 -0.112,0.6728c-0.038,0.1868 -0.075,0.3924 -0.113,0.6167c-0.112,0.4111 -0.225,0.8409 -0.337,1.2894c-0.075,0.4485 -0.15,0.897 -0.225,1.3455c-0.075,0.4112 -0.169,0.841 -0.282,1.2895c-0.075,0.4485 -0.15,0.8783 -0.225,1.2894c-0.037,0.1122 -0.056,0.2243 -0.056,0.3364c0,0.0748 -0.019,0.1682 -0.056,0.2803c-0.075,0.299 -0.113,0.5233 -0.113,0.6728c-0.112,0.3738 -0.1872,0.7849 -0.2247,1.2334c-0.075,0.4111 -0.15,0.8223 -0.225,1.2334c-0.0751,0.4111 -0.1313,0.7849 -0.1688,1.1213c-0.1125,0.8596 -0.225,1.5697 -0.3375,2.1304c-0.075,0.299 -0.1313,0.598 -0.1688,0.897c-0.0375,0.299 -0.075,0.598 -0.1125,0.897c-0.075,0.2616 -0.1312,0.5232 -0.1687,0.7849c0,0.2242 -0.0188,0.4298 -0.0563,0.6167c-0.0375,0.1868 -0.0562,0.355 -0.0562,0.5045c0,0.1495 -0.0188,0.2804 -0.0563,0.3925c0,0.0747 -0.0187,0.1308 -0.0563,0.1682c0,0 0,0.0187 0,0.056l0,0.0561c0.0376,0 0.0563,-0.0187 0.0563,-0.0561c0,-0.0747 0.0188,-0.1495 0.0563,-0.2242c0.0375,-0.0748 0.0562,-0.1869 0.0562,-0.3364c0.0375,-0.1869 0.0938,-0.3738 0.1688,-0.5606c0.075,-0.1869 0.1312,-0.3925 0.1687,-0.6167c0.075,-0.2243 0.15,-0.4672 0.225,-0.7289c0.075,-0.2616 0.1313,-0.5419 0.1688,-0.8409c0.075,-0.299 0.1312,-0.598 0.1687,-0.897c0.075,-0.299 0.1501,-0.6167 0.2251,-0.9531c0.1125,-0.3737 0.2062,-0.7475 0.2812,-1.1213c0.075,-0.3737 0.15,-0.7662 0.225,-1.1773c0.113,-0.4111 0.225,-0.8222 0.338,-1.2334c0.037,-0.1869 0.075,-0.3737 0.112,-0.5606c0.038,-0.2243 0.075,-0.4298 0.113,-0.6167l0.168,-0.6728c0.038,-0.1121 0.057,-0.2242 0.057,-0.3363c0,-0.1122 0.018,-0.2243 0.056,-0.3364c0.075,-0.4112 0.169,-0.8223 0.281,-1.2334c0.113,-0.4485 0.206,-0.897 0.281,-1.3455c0.075,-0.4112 0.15,-0.841 0.225,-1.2895c0.075,-0.4485 0.15,-0.8783 0.225,-1.2895c0.038,-0.2242 0.075,-0.4485 0.113,-0.6727c0.037,-0.2243 0.075,-0.4298 0.112,-0.6167zm4.782,9.5868c0.412,-0.0374 0.731,-0.1869 0.956,-0.4485c0.263,-0.299 0.356,-0.6541 0.281,-1.0652l-0.337,-1.6258c-0.15,-0.5233 -0.413,-1.0092 -0.788,-1.4577c-0.337,-0.4485 -0.75,-0.8035 -1.237,-1.0652c0.45,-0.2616 0.937,-0.3924 1.462,-0.3924l-1.8,-9.5868l-1.8,9.5868c0.488,0 0.994,0.1308 1.519,0.3924c-0.525,0.2617 -0.975,0.6167 -1.35,1.0652c-0.338,0.4485 -0.563,0.9344 -0.675,1.4577l-0.281,1.6258c-0.075,0.4111 0,0.7662 0.225,1.0652c0.225,0.2616 0.525,0.4111 0.9,0.4485l2.925,0zm5.681,7.8489c0,0.0747 0,0.1308 0,0.1682c0.038,0 0.057,0.0187 0.057,0.056l0,-0.2242c-0.038,-0.1121 -0.057,-0.243 -0.057,-0.3925c0,-0.1495 -0.018,-0.3177 -0.056,-0.5045c-0.037,-0.1869 -0.075,-0.3925 -0.112,-0.6167c0,-0.2617 -0.038,-0.5233 -0.113,-0.7849c-0.037,-0.299 -0.075,-0.598 -0.112,-0.897c-0.038,-0.299 -0.094,-0.598 -0.169,-0.897c-0.113,-0.5607 -0.225,-1.2708 -0.338,-2.1304c-0.075,-0.3364 -0.15,-0.7102 -0.225,-1.1213c-0.037,-0.4111 -0.093,-0.8223 -0.168,-1.2334c-0.075,-0.2243 -0.132,-0.4298 -0.169,-0.6167c0,-0.1869 -0.038,-0.3924 -0.113,-0.6167c0,-0.1495 -0.037,-0.3738 -0.112,-0.6728c0,-0.1121 -0.019,-0.2055 -0.056,-0.2803c0,-0.1121 0,-0.2242 0,-0.3364c-0.075,-0.4111 -0.169,-0.8409 -0.282,-1.2894c-0.075,-0.4485 -0.15,-0.8783 -0.225,-1.2895c-0.075,-0.4485 -0.168,-0.897 -0.281,-1.3455c-0.075,-0.4485 -0.169,-0.8783 -0.281,-1.2894c-0.038,-0.2243 -0.075,-0.4299 -0.113,-0.6167c-0.037,-0.2243 -0.075,-0.4485 -0.112,-0.6728c-0.075,-0.2242 -0.132,-0.4298 -0.169,-0.6167c-0.038,-0.1869 -0.075,-0.3924 -0.113,-0.6167c-0.187,-0.8596 -0.375,-1.6445 -0.562,-2.3546c-0.15,-0.7476 -0.281,-1.439 -0.394,-2.0744c-0.075,-0.299 -0.15,-0.598 -0.225,-0.897c-0.075,-0.299 -0.15,-0.598 -0.225,-0.897c-0.075,-0.2243 -0.15,-0.4485 -0.225,-0.6728c-0.037,-0.2616 -0.094,-0.4859 -0.169,-0.6727c-0.037,-0.1869 -0.075,-0.3551 -0.112,-0.5046c-0.038,-0.1495 -0.075,-0.2803 -0.113,-0.3924l-0.056,-0.2243l0,0.2243c0.038,0.1868 0.094,0.5045 0.169,0.953c0,0.1869 0.019,0.3925 0.056,0.6167c0.038,0.2243 0.075,0.4672 0.113,0.7288c0.037,0.2991 0.075,0.5981 0.112,0.8971c0.038,0.299 0.094,0.598 0.169,0.897c0.112,0.6354 0.225,1.3455 0.337,2.1304c0.113,0.7475 0.244,1.5511 0.394,2.4107c0.038,0.1869 0.056,0.3924 0.056,0.6167c0.038,0.1869 0.094,0.3924 0.169,0.6167c0.038,0.1869 0.075,0.3924 0.113,0.6167c0.037,0.2242 0.075,0.4485 0.112,0.6727c0.075,0.4112 0.15,0.841 0.225,1.2895c0.113,0.4485 0.206,0.8783 0.281,1.2895c0.075,0.4485 0.169,0.897 0.282,1.3455c0.112,0.4111 0.206,0.8222 0.281,1.2334c0.038,0.1121 0.056,0.2242 0.056,0.3364c0,0.1121 0.019,0.2242 0.057,0.3363l0.168,0.6728c0.038,0.1869 0.075,0.3924 0.113,0.6167c0.037,0.1869 0.075,0.3737 0.112,0.5606c0.113,0.4112 0.207,0.8223 0.282,1.2334c0.075,0.4111 0.15,0.8036 0.225,1.1773c0.075,0.3738 0.15,0.7476 0.225,1.1213c0.112,0.3364 0.206,0.6541 0.281,0.9531c0.075,0.299 0.15,0.598 0.225,0.897c0.075,0.299 0.15,0.5793 0.225,0.8409c0.112,0.5233 0.225,0.9718 0.337,1.3456c0.075,0.1868 0.113,0.3737 0.113,0.5606c0.037,0.1495 0.075,0.2616 0.112,0.3364z"/>
  <path id="svg_29" fill="#6d6d6d" d="m139.14642,88.1246c0.413,0.0748 0.694,0.2056 0.844,0.3925c0.187,0.1868 0.319,0.3737 0.394,0.5606c0.075,0.2242 0.112,0.4672 0.112,0.7288c-1.2,0 -2.325,-0.1495 -3.375,-0.4485c-1.05,-0.299 -1.988,-0.7849 -2.813,-1.4576c-0.787,-0.6728 -1.425,-1.5511 -1.912,-2.635c-0.45,-1.0839 -0.675,-2.4107 -0.675,-3.9805l0,-7.6807c0,-0.4859 -0.019,-1.0839 -0.057,-1.794c-0.037,-0.7101 -0.168,-1.3829 -0.393,-2.0183c-0.225,-0.6354 -0.582,-1.1773 -1.069,-1.6258c-0.45,-0.4859 -1.125,-0.7288 -2.025,-0.7288l-2.307,0c-0.337,0.0747 -0.637,0.2616 -0.9,0.5606c-0.225,0.2616 -0.337,0.5793 -0.337,0.9531l0,13.3991c0,0.6728 0.056,1.1773 0.169,1.5137c0.15,0.299 0.3,0.5419 0.45,0.7288c0.15,0.1495 0.281,0.299 0.393,0.4485c0.15,0.1495 0.225,0.3925 0.225,0.7289l-2.981,0c-0.225,0 -0.431,-0.0935 -0.619,-0.2804c-0.187,-0.1868 -0.281,-0.3924 -0.281,-0.6167c0,0.2243 -0.094,0.4299 -0.281,0.6167c-0.15,0.1869 -0.357,0.2804 -0.619,0.2804l-2.925,0c0,-0.3364 0.056,-0.5794 0.168,-0.7289c0.15,-0.1495 0.301,-0.299 0.451,-0.4485c0.15,-0.1869 0.281,-0.4298 0.393,-0.7288c0.15,-0.299 0.225,-0.7662 0.225,-1.4016l0,-13.6794c-0.112,-1.1587 -0.637,-1.9996 -1.575,-2.5229c0.413,-0.2616 0.938,-0.3924 1.575,-0.3924l0,-16.0341c0,-0.6354 -0.075,-1.1026 -0.225,-1.4016c-0.112,-0.299 -0.243,-0.5233 -0.393,-0.6728c-0.15,-0.1868 -0.301,-0.355 -0.451,-0.5045c-0.112,-0.1495 -0.168,-0.3925 -0.168,-0.7289l2.981,0c0.225,0 0.431,0.0935 0.619,0.2804c0.187,0.1495 0.281,0.355 0.281,0.6167c0,-0.5981 0.3,-0.8971 0.9,-0.8971l5.288,0c1.2,0 2.325,0.2243 3.375,0.6728c1.05,0.4485 1.969,1.0652 2.757,1.8501c0.787,0.7475 1.406,1.6445 1.856,2.691c0.45,1.0465 0.694,2.1491 0.731,3.3078l0,3.6441c0,1.5698 -0.375,3.0087 -1.125,4.3169c-0.75,1.3081 -1.762,2.3546 -3.038,3.1395c1.276,0.7475 2.288,1.794 3.038,3.1395c0.75,1.3082 1.125,2.7471 1.125,4.3169l0,7.4564c0,0.7849 0,1.5885 0,2.4108c0.038,0.7848 0.131,1.5137 0.281,2.1864c0.15,0.6354 0.375,1.1774 0.675,1.6259c0.3,0.4485 0.713,0.7288 1.238,0.8409zm-5.119,-30.3863c-0.038,0.0748 -0.056,0.1682 -0.056,0.2803l0,1.2895c-0.038,0.1495 -0.057,0.299 -0.057,0.4485c0,0.1121 0,0.2242 0,0.3364c0,0.0747 -0.018,0.1308 -0.056,0.1682c0,0.0373 0,0.0934 0,0.1681l0,0.3364c-0.037,0.0748 -0.056,0.1682 -0.056,0.2803c0,0.0748 -0.019,0.1495 -0.056,0.2243c0,0.0747 -0.019,0.1308 -0.057,0.1682l0,0.1121l-0.056,0.1121c0,0 0.038,-0.0187 0.113,-0.056l0,-0.0561l0.056,-0.0561c0.037,-0.0373 0.056,-0.056 0.056,-0.056c0,-0.0374 0.019,-0.0748 0.056,-0.1121c0.038,-0.0748 0.075,-0.1495 0.113,-0.2243c0.037,-0.1121 0.075,-0.2056 0.113,-0.2803c0.037,-0.0748 0.056,-0.1121 0.056,-0.1121c0,-0.0374 0.018,-0.0935 0.056,-0.1682c0.038,-0.0748 0.056,-0.1308 0.056,-0.1682c0,-0.0748 0.019,-0.1495 0.057,-0.2243c0.037,-0.0747 0.056,-0.1308 0.056,-0.1682c0,-0.0373 0.019,-0.0934 0.056,-0.1682c0,-0.0747 0,-0.1308 0,-0.1681c0.038,-0.0748 0.056,-0.1495 0.056,-0.2243c0.038,-0.1495 0.057,-0.299 0.057,-0.4485c0.037,-0.1495 0.075,-0.299 0.112,-0.4485c0.038,-0.1121 0.056,-0.2803 0.056,-0.5046c0,-0.0747 0,-0.1495 0,-0.2242c0.038,-0.0748 0.057,-0.1495 0.057,-0.2243l0,-1.9622c0,-0.2243 -0.019,-0.3924 -0.057,-0.5046l0,-0.2242c0,-0.0748 -0.018,-0.1122 -0.056,-0.1122c0,-0.0373 0,-0.0934 0,-0.1681c0,-0.1869 -0.037,-0.4672 -0.112,-0.841c-0.038,-0.0747 -0.057,-0.1495 -0.057,-0.2242c0,-0.0748 -0.018,-0.1495 -0.056,-0.2243c0,-0.0374 -0.019,-0.0561 -0.056,-0.0561c0,-0.0373 0,-0.0747 0,-0.1121c0,-0.0374 -0.019,-0.056 -0.056,-0.056c0,-0.0374 0,-0.0748 0,-0.1122c-0.038,-0.0747 -0.057,-0.1308 -0.057,-0.1682c0,-0.0373 -0.018,-0.0934 -0.056,-0.1682c-0.038,-0.0747 -0.056,-0.1308 -0.056,-0.1681c0,-0.0374 -0.019,-0.0935 -0.056,-0.1682c-0.038,-0.0374 -0.057,-0.0748 -0.057,-0.1122c0,-0.0373 -0.019,-0.0747 -0.056,-0.1121c-0.075,-0.1495 -0.113,-0.2242 -0.113,-0.2242c-0.037,-0.0374 -0.056,-0.0561 -0.056,-0.0561c0,-0.0374 -0.019,-0.0748 -0.056,-0.1121c-0.038,-0.0374 -0.056,-0.0748 -0.056,-0.1122c-0.038,-0.0373 -0.057,-0.0747 -0.057,-0.1121l-0.056,0c0,0 0.019,0.0374 0.056,0.1121l0,0.1122c0.038,0.0373 0.057,0.1121 0.057,0.2242c0,0.0374 0,0.0748 0,0.1121c0.037,0 0.056,0.0374 0.056,0.1122c0,0.1121 0.019,0.2055 0.056,0.2803l0,0.2803c0,0.0748 0,0.1308 0,0.1682c0.038,0.0374 0.056,0.0934 0.056,0.1682c0,0.3364 0.019,0.598 0.057,0.7849l0,0.897c0.037,0.1869 0.056,0.4859 0.056,0.897l0,2.1304zm-11.588,5.7745c0,-0.1869 -0.019,-0.3924 -0.056,-0.6167c0,-0.2242 0,-0.4485 0,-0.6727l0,-1.2334c-0.038,-0.8223 -0.057,-1.6072 -0.057,-2.3547c0,-0.7475 -0.018,-1.4576 -0.056,-2.1304c-0.037,-0.299 -0.056,-0.598 -0.056,-0.897c0,-0.299 -0.019,-0.5793 -0.056,-0.841c0,-0.299 -0.019,-0.5606 -0.057,-0.7848c0,-0.2243 0,-0.4299 0,-0.6167c0,-0.1869 -0.018,-0.3551 -0.056,-0.5046c0,-0.1495 0,-0.2803 0,-0.3924l0,-0.2804c-0.037,0 -0.056,0.0187 -0.056,0.0561l0,0.2243c0,0.1121 -0.019,0.2429 -0.056,0.3924c0,0.1495 0,0.3177 0,0.5046c0,0.1868 -0.019,0.3924 -0.057,0.6167c0,0.2242 0,0.4858 0,0.7848c-0.037,0.2617 -0.056,0.542 -0.056,0.841c0,0.299 -0.019,0.598 -0.056,0.897c-0.038,0.6728 -0.056,1.3829 -0.056,2.1304c0,0.7475 -0.019,1.5324 -0.057,2.3547l0,1.2334c0,0.2242 -0.018,0.4485 -0.056,0.6727c0,0.2243 0,0.4298 0,0.6167l0,5.2139c0,0.299 0.019,0.5233 0.056,0.6728l0,1.8501c0,0.4111 0,0.8222 0,1.2334c0.038,0.3737 0.057,0.7475 0.057,1.1212c0,0.4111 0,0.7849 0,1.1213c0.037,0.3364 0.056,0.6727 0.056,1.0091c0.037,0.3364 0.056,0.6541 0.056,0.9531c0,0.2616 0.019,0.5419 0.056,0.8409c0,0.2617 0,0.5046 0,0.7289c0.038,0.2242 0.057,0.4298 0.057,0.6167c0,0.1868 0,0.3737 0,0.5606c0.037,0.1495 0.056,0.2616 0.056,0.3364l0,0.2803c0,0.0374 0.019,0.0561 0.056,0.0561l0,-0.3364c0,-0.0748 0,-0.1869 0,-0.3364c0.038,-0.1869 0.056,-0.3738 0.056,-0.5606c0,-0.1869 0,-0.3925 0,-0.6167c0.038,-0.2243 0.057,-0.4672 0.057,-0.7289c0.037,-0.299 0.056,-0.5793 0.056,-0.8409c0,-0.299 0.019,-0.6167 0.056,-0.9531c0,-0.3364 0,-0.6727 0,-1.0091c0.038,-0.3364 0.056,-0.7102 0.056,-1.1213c0,-0.3737 0,-0.7475 0,-1.1212c0.038,-0.4112 0.057,-0.8223 0.057,-1.2334l0,-1.2334c0,-0.299 0.018,-0.5046 0.056,-0.6167l0,-5.8867zm9.282,-8.2413c0,-0.4859 -0.019,-1.0839 -0.057,-1.794c-0.037,-0.7101 -0.168,-1.3829 -0.393,-2.0183c-0.225,-0.6354 -0.582,-1.1773 -1.069,-1.6258c-0.45,-0.4859 -1.125,-0.7288 -2.025,-0.7288l-2.025,0c-0.413,0.0373 -0.769,0.2055 -1.069,0.5045c-0.3,0.299 -0.45,0.6541 -0.45,1.0652l0,12.6143c0,0.4111 0.15,0.7662 0.45,1.0652c0.3,0.299 0.656,0.4485 1.069,0.4485l2.025,0c0.9,0 1.575,-0.2243 2.025,-0.6728c0.487,-0.4485 0.844,-0.9904 1.069,-1.6258c0.225,-0.6728 0.356,-1.3455 0.393,-2.0183c0.038,-0.7101 0.057,-1.3081 0.057,-1.794l0,-3.4199zm3.769,30.7227c0,0 -0.019,-0.0187 -0.057,-0.0561l-0.056,-0.056c-0.037,-0.0748 -0.075,-0.1495 -0.112,-0.2243c0,-0.0747 -0.038,-0.1495 -0.113,-0.2242c-0.037,-0.1122 -0.075,-0.2243 -0.112,-0.3364c-0.038,-0.1495 -0.075,-0.3177 -0.113,-0.5046c-0.075,-0.3737 -0.112,-0.7288 -0.112,-1.0652c-0.038,-0.1869 -0.057,-0.3737 -0.057,-0.5606c0,-0.2243 0,-0.4672 0,-0.7288l0,-2.9714c0,-0.2616 0,-0.5232 0,-0.7849c0,-0.2616 0.019,-0.5419 0.057,-0.8409c0,-0.2617 0,-0.5233 0,-0.7849c0,-0.2616 -0.019,-0.5233 -0.057,-0.7849l0,-0.7849c0,-0.3737 -0.018,-0.6354 -0.056,-0.7849c0,-0.2616 -0.019,-0.5045 -0.056,-0.7288c0,-0.2616 -0.019,-0.5046 -0.056,-0.7288c-0.075,-0.5233 -0.15,-0.9718 -0.225,-1.3455c-0.038,-0.1869 -0.075,-0.3551 -0.113,-0.5046c-0.038,-0.1869 -0.094,-0.3738 -0.169,-0.5606c-0.075,-0.1869 -0.131,-0.3364 -0.169,-0.4485c-0.037,-0.1122 -0.093,-0.2243 -0.168,-0.3364c-0.075,-0.1122 -0.132,-0.2056 -0.169,-0.2803c-0.038,-0.0748 -0.075,-0.1495 -0.113,-0.2243c-0.037,0 -0.075,-0.0187 -0.112,-0.0561c-0.038,0 -0.056,-0.0186 -0.056,-0.056l0.056,0.056c0,0.0374 0.019,0.0748 0.056,0.1122c0,0.0373 0,0.0747 0,0.1121c0.038,0 0.056,0.0374 0.056,0.1121c0.038,0.0374 0.057,0.0748 0.057,0.1121c0,0.0374 0.018,0.0935 0.056,0.1682c0.037,0.1495 0.094,0.4112 0.169,0.7849c0.037,0.1869 0.056,0.3738 0.056,0.5607c0.037,0.1868 0.075,0.3737 0.112,0.5606c0,0.1869 0,0.3924 0,0.6167c0.038,0.1869 0.057,0.4111 0.057,0.6727l0,6.9519c0,0.1495 0,0.2803 0,0.3924c0.037,0.1122 0.056,0.243 0.056,0.3925c0,0.2616 0,0.5232 0,0.7849c0.037,0.2242 0.075,0.4485 0.113,0.6727c0.037,0.2243 0.056,0.4485 0.056,0.6728c0.037,0.2242 0.075,0.4298 0.112,0.6167c0.075,0.2242 0.132,0.4298 0.169,0.6167c0.038,0.1495 0.094,0.3177 0.169,0.5046c0.075,0.1868 0.131,0.3363 0.169,0.4485c0.037,0.1121 0.093,0.2242 0.168,0.3363l0.113,0.1122c0.037,0.0373 0.056,0.0747 0.056,0.1121c0,0 0.019,0.0187 0.056,0.0561l0.225,0.2242l0.057,0z"/>
  <path id="svg_30" fill="#6d6d6d" d="m156.336,58.6914c0,1.5698 -0.375,3.0087 -1.125,4.3169c-0.75,1.3081 -1.763,2.3546 -3.038,3.1395c1.275,0.7475 2.288,1.794 3.038,3.1395c0.75,1.3082 1.125,2.7471 1.125,4.3169l0,3.6441c-0.037,1.1961 -0.281,2.3173 -0.731,3.3638c-0.45,1.0092 -1.069,1.9062 -1.857,2.6911c-0.787,0.7475 -1.706,1.3455 -2.756,1.794c-1.05,0.4485 -2.175,0.6728 -3.375,0.6728l-5.344,0c-0.225,0 -0.431,-0.0935 -0.619,-0.2804c-0.187,-0.1868 -0.281,-0.3924 -0.281,-0.6167c0,0.2243 -0.094,0.4299 -0.281,0.6167c-0.15,0.1869 -0.357,0.2804 -0.619,0.2804l-2.925,0c0,-0.3364 0.056,-0.5794 0.168,-0.7289c0.15,-0.1495 0.3,-0.299 0.45,-0.4485c0.15,-0.1869 0.282,-0.4298 0.394,-0.7288c0.15,-0.299 0.225,-0.7662 0.225,-1.4016l0,-13.6794c-0.112,-1.1587 -0.637,-1.9996 -1.575,-2.5229c0.413,-0.2616 0.938,-0.3924 1.575,-0.3924l0,-16.0341c0,-0.6354 -0.075,-1.1026 -0.225,-1.4016c-0.112,-0.299 -0.244,-0.5233 -0.394,-0.6728c-0.15,-0.1868 -0.3,-0.355 -0.45,-0.5045c-0.112,-0.1495 -0.168,-0.3925 -0.168,-0.7289l2.981,0c0.225,0 0.431,0.0935 0.619,0.2804c0.187,0.1495 0.281,0.355 0.281,0.6167c0,-0.5981 0.3,-0.8971 0.9,-0.8971l5.288,0c1.2,0 2.325,0.2243 3.375,0.6728c1.05,0.4485 1.969,1.0652 2.756,1.8501c0.788,0.7475 1.407,1.6445 1.857,2.691c0.45,1.0465 0.694,2.1491 0.731,3.3078l0,3.6441zm-14.513,4.8214c0,-0.1869 -0.019,-0.3924 -0.056,-0.6167c0,-0.2242 0,-0.4485 0,-0.6727l0,-1.2334c-0.038,-0.8223 -0.057,-1.6072 -0.057,-2.3547c0,-0.7475 -0.018,-1.4576 -0.056,-2.1304c-0.037,-0.299 -0.056,-0.598 -0.056,-0.897c0,-0.299 -0.019,-0.5793 -0.056,-0.841c0,-0.299 -0.019,-0.5606 -0.057,-0.7848c0,-0.2243 0,-0.4299 0,-0.6167c0,-0.1869 -0.018,-0.3551 -0.056,-0.5046c0,-0.1495 0,-0.2803 0,-0.3924l0,-0.2804c-0.037,0 -0.056,0.0187 -0.056,0.0561l0,0.2243c0,0.1121 -0.019,0.2429 -0.056,0.3924c0,0.1495 0,0.3177 0,0.5046c0,0.1868 -0.019,0.3924 -0.057,0.6167c0,0.2242 0,0.4858 0,0.7848c-0.037,0.2617 -0.056,0.542 -0.056,0.841c0,0.299 -0.019,0.598 -0.056,0.897c-0.038,0.6728 -0.056,1.3829 -0.056,2.1304c0,0.7475 -0.019,1.5324 -0.057,2.3547l0,1.2334c0,0.2242 -0.018,0.4485 -0.056,0.6727c0,0.2243 0,0.4298 0,0.6167l0,5.2139c0,0.299 0.019,0.5233 0.056,0.6728l0,1.8501c0,0.4111 0,0.8222 0,1.2334c0.038,0.3737 0.057,0.7475 0.057,1.1212c0,0.4111 0,0.7849 0,1.1213c0.037,0.3364 0.056,0.6727 0.056,1.0091c0.037,0.3364 0.056,0.6541 0.056,0.9531c0,0.2616 0.019,0.5419 0.056,0.8409c0,0.2617 0,0.5046 0,0.7289c0.038,0.2242 0.057,0.4298 0.057,0.6167c0,0.1868 0,0.3737 0,0.5606c0.037,0.1495 0.056,0.2616 0.056,0.3364l0,0.2803c0,0.0374 0.019,0.0561 0.056,0.0561l0,-0.3364c0,-0.0748 0,-0.1869 0,-0.3364c0.038,-0.1869 0.056,-0.3738 0.056,-0.5606c0,-0.1869 0,-0.3925 0,-0.6167c0.038,-0.2243 0.057,-0.4672 0.057,-0.7289c0.037,-0.299 0.056,-0.5793 0.056,-0.8409c0,-0.299 0.019,-0.6167 0.056,-0.9531c0,-0.3364 0,-0.6727 0,-1.0091c0.038,-0.3364 0.056,-0.7102 0.056,-1.1213c0,-0.3737 0,-0.7475 0,-1.1212c0.038,-0.4112 0.057,-0.8223 0.057,-1.2334l0,-1.2334c0,-0.299 0.018,-0.5046 0.056,-0.6167l0,-5.8867zm11.588,13.0067c-0.038,0.0748 -0.056,0.1682 -0.056,0.2803l0,1.2895c-0.038,0.1495 -0.057,0.299 -0.057,0.4485c0,0.1121 0,0.2242 0,0.3364c0,0.0747 -0.018,0.1308 -0.056,0.1682c0,0.0373 0,0.0934 0,0.1681l0,0.3364c-0.037,0.0748 -0.056,0.1682 -0.056,0.2803c0,0.0748 -0.019,0.1495 -0.056,0.2243c0,0.0747 -0.019,0.1308 -0.057,0.1682l0,0.1121l-0.056,0.1121c0,0 0.038,-0.0186 0.113,-0.056l0,-0.0561l0.056,-0.0561c0.037,-0.0373 0.056,-0.056 0.056,-0.056c0,-0.0374 0.019,-0.0748 0.056,-0.1121c0.038,-0.0748 0.075,-0.1495 0.113,-0.2243c0.037,-0.1121 0.075,-0.2056 0.112,-0.2803c0.038,-0.0748 0.057,-0.1121 0.057,-0.1121c0,-0.0374 0.018,-0.0935 0.056,-0.1682c0.037,-0.0748 0.056,-0.1308 0.056,-0.1682c0,-0.0374 0.019,-0.0935 0.056,-0.1682c0.038,-0.0748 0.057,-0.1308 0.057,-0.1682c0,-0.0747 0.018,-0.1495 0.056,-0.2243c0,-0.0747 0,-0.1308 0,-0.1681c0.037,-0.0748 0.056,-0.1495 0.056,-0.2243c0.038,-0.1495 0.056,-0.299 0.056,-0.4485c0.038,-0.1495 0.075,-0.299 0.113,-0.4485c0.037,-0.1121 0.056,-0.2803 0.056,-0.5046c0,-0.0747 0,-0.1495 0,-0.2242c0.038,-0.0748 0.056,-0.1495 0.056,-0.2243l0,-1.9622c0,-0.2242 -0.018,-0.3924 -0.056,-0.5046l0,-0.2242c0,-0.0748 -0.019,-0.1121 -0.056,-0.1121c0,-0.0374 0,-0.0748 0,-0.1122c0,-0.1868 -0.019,-0.3364 -0.056,-0.4485c0,-0.1495 -0.019,-0.299 -0.057,-0.4485c-0.037,-0.0747 -0.056,-0.1495 -0.056,-0.2242c0,-0.0748 -0.019,-0.1495 -0.056,-0.2243c0,-0.0374 -0.019,-0.0561 -0.056,-0.0561c0,-0.0373 0,-0.0747 0,-0.1121c0,-0.0374 -0.019,-0.056 -0.057,-0.056c0,-0.0374 0,-0.0748 0,-0.1122c-0.037,-0.0747 -0.056,-0.1308 -0.056,-0.1682c0,-0.0373 -0.019,-0.0934 -0.056,-0.1682c-0.038,-0.0747 -0.056,-0.1308 -0.056,-0.1681c0,-0.0374 -0.019,-0.0935 -0.057,-0.1682c-0.037,-0.0374 -0.056,-0.0748 -0.056,-0.1122c0,-0.0373 -0.019,-0.0747 -0.056,-0.1121c-0.075,-0.1495 -0.113,-0.2242 -0.113,-0.2242c-0.037,-0.0374 -0.056,-0.0561 -0.056,-0.0561c0,-0.0374 -0.019,-0.0748 -0.056,-0.1121c-0.038,-0.0374 -0.056,-0.0748 -0.056,-0.1122l-0.113,-0.1121c0,0 0.019,0.0374 0.056,0.1121l0,0.1122c0.038,0.0373 0.057,0.1121 0.057,0.2242c0,0.0374 0,0.0748 0,0.1122c0.037,0 0.056,0.0373 0.056,0.1121c0,0.1121 0.019,0.2055 0.056,0.2803l0,0.2803c0,0.0748 0,0.1308 0,0.1682c0.038,0.0374 0.056,0.0934 0.056,0.1682c0,0.3364 0.019,0.598 0.057,0.7849l0,0.897c0.037,0.1869 0.056,0.4859 0.056,0.897l0,2.1304zm-2.306,-2.9153c0,-0.4859 -0.019,-1.0839 -0.057,-1.794c-0.037,-0.7101 -0.168,-1.3829 -0.394,-2.0183c-0.225,-0.6354 -0.581,-1.1773 -1.068,-1.6258c-0.45,-0.4859 -1.125,-0.7288 -2.025,-0.7288l-2.026,0c-0.412,0.0373 -0.768,0.2055 -1.068,0.5045c-0.3,0.299 -0.45,0.6541 -0.45,1.0652l0,12.6143c0,0.4111 0.15,0.7662 0.45,1.0652c0.3,0.299 0.656,0.4485 1.068,0.4485l2.026,0c0.9,0 1.575,-0.2243 2.025,-0.6728c0.487,-0.4485 0.843,-0.9904 1.068,-1.6258c0.226,-0.6728 0.357,-1.3455 0.394,-2.0183c0.038,-0.7101 0.057,-1.3081 0.057,-1.794l0,-3.4199zm0,-18.3327c0,-0.4859 -0.019,-1.0839 -0.057,-1.794c-0.037,-0.7101 -0.168,-1.3829 -0.394,-2.0183c-0.225,-0.6354 -0.581,-1.1773 -1.068,-1.6258c-0.45,-0.4859 -1.125,-0.7288 -2.025,-0.7288l-2.026,0c-0.412,0.0373 -0.768,0.2055 -1.068,0.5045c-0.3,0.299 -0.45,0.6541 -0.45,1.0652l0,12.6143c0,0.4111 0.15,0.7662 0.45,1.0652c0.3,0.299 0.656,0.4485 1.068,0.4485l2.026,0c0.9,0 1.575,-0.2243 2.025,-0.6728c0.487,-0.4485 0.843,-0.9904 1.068,-1.6258c0.226,-0.6728 0.357,-1.3455 0.394,-2.0183c0.038,-0.7101 0.057,-1.3081 0.057,-1.794l0,-3.4199zm2.418,5.5503c0.038,-0.0748 0.057,-0.1121 0.057,-0.1121c0,-0.0374 0.018,-0.0935 0.056,-0.1682c0.037,-0.0748 0.056,-0.1308 0.056,-0.1682c0,-0.0748 0.019,-0.1495 0.056,-0.2243c0.038,-0.0747 0.057,-0.1308 0.057,-0.1682c0,-0.0373 0.018,-0.0934 0.056,-0.1682c0,-0.0747 0,-0.1308 0,-0.1681c0.037,-0.0748 0.056,-0.1495 0.056,-0.2243c0.038,-0.1495 0.056,-0.299 0.056,-0.4485c0.038,-0.1495 0.075,-0.299 0.113,-0.4485c0.037,-0.1121 0.056,-0.2803 0.056,-0.5046c0,-0.0747 0,-0.1495 0,-0.2242c0.038,-0.0748 0.056,-0.1495 0.056,-0.2243l0,-1.9622c0,-0.2243 -0.018,-0.3924 -0.056,-0.5046l0,-0.2242c0,-0.0748 -0.019,-0.1122 -0.056,-0.1122c0,-0.0373 0,-0.0934 0,-0.1681c0,-0.1869 -0.038,-0.4672 -0.113,-0.841c-0.037,-0.0747 -0.056,-0.1495 -0.056,-0.2242c0,-0.0748 -0.019,-0.1495 -0.056,-0.2243c0,-0.0374 -0.019,-0.0561 -0.056,-0.0561c0,-0.0373 0,-0.0747 0,-0.1121c0,-0.0374 -0.019,-0.056 -0.057,-0.056c0,-0.0374 0,-0.0748 0,-0.1122c-0.037,-0.0747 -0.056,-0.1308 -0.056,-0.1682c0,-0.0373 -0.019,-0.0934 -0.056,-0.1682c-0.038,-0.0747 -0.056,-0.1308 -0.056,-0.1681c0,-0.0374 -0.019,-0.0935 -0.057,-0.1682c-0.037,-0.0374 -0.056,-0.0748 -0.056,-0.1122c0,-0.0373 -0.019,-0.0747 -0.056,-0.1121c-0.075,-0.1495 -0.113,-0.2242 -0.113,-0.2242c-0.037,-0.0374 -0.056,-0.0561 -0.056,-0.0561c0,-0.0374 -0.019,-0.0748 -0.056,-0.1121c-0.038,-0.0374 -0.056,-0.0748 -0.056,-0.1122c-0.038,-0.0373 -0.057,-0.0747 -0.057,-0.1121l-0.056,0c0,0 0.019,0.0374 0.056,0.1121l0,0.1122c0.038,0.0373 0.057,0.1121 0.057,0.2242c0,0.0374 0,0.0748 0,0.1121c0.037,0 0.056,0.0374 0.056,0.1122c0,0.1121 0.019,0.2055 0.056,0.2803l0,0.2803c0,0.0748 0,0.1308 0,0.1682c0.038,0.0374 0.056,0.0934 0.056,0.1682c0,0.3364 0.019,0.598 0.057,0.7849l0,0.897c0.037,0.1869 0.056,0.4859 0.056,0.897l0,2.1304c-0.038,0.0748 -0.056,0.1682 -0.056,0.2803l0,1.2895c-0.038,0.1495 -0.057,0.299 -0.057,0.4485c0,0.1121 0,0.2242 0,0.3364c0,0.0747 -0.018,0.1308 -0.056,0.1682c0,0.0373 0,0.0934 0,0.1681l0,0.3364c-0.037,0.0748 -0.056,0.1682 -0.056,0.2803c0,0.0748 -0.019,0.1495 -0.056,0.2243c0,0.0747 -0.019,0.1308 -0.057,0.1682l0,0.1121l-0.056,0.1121c0,0 0.038,-0.0187 0.113,-0.056l0,-0.0561l0.056,-0.0561c0.037,-0.0373 0.056,-0.056 0.056,-0.056c0,-0.0374 0.019,-0.0748 0.056,-0.1121c0.038,-0.0748 0.075,-0.1495 0.113,-0.2243c0.037,-0.1121 0.075,-0.2056 0.112,-0.2803z"/>
  <path id="svg_31" fill="#6d6d6d" d="m175.509,82.3501c0,0.6728 0.057,1.1773 0.169,1.5137c0.15,0.299 0.3,0.5419 0.45,0.7288c0.15,0.1495 0.281,0.299 0.394,0.4485c0.15,0.1495 0.225,0.3925 0.225,0.7289l-15.301,0c-0.225,0 -0.431,-0.0935 -0.619,-0.2804c-0.187,-0.1868 -0.281,-0.3924 -0.281,-0.6167c0,0.2243 -0.094,0.4299 -0.281,0.6167c-0.15,0.1869 -0.356,0.2804 -0.619,0.2804l-2.925,0c0,-0.3364 0.056,-0.5794 0.169,-0.7289c0.15,-0.1495 0.3,-0.299 0.45,-0.4485c0.15,-0.1869 0.281,-0.4298 0.394,-0.7288c0.15,-0.299 0.225,-0.7662 0.225,-1.4016l0,-13.6794c-0.113,-1.1587 -0.638,-1.9996 -1.576,-2.5229c0.413,-0.2616 0.938,-0.3924 1.576,-0.3924l0,-16.0341c0,-0.6354 -0.075,-1.1026 -0.225,-1.4016c-0.113,-0.299 -0.244,-0.5233 -0.394,-0.6728c-0.15,-0.1868 -0.3,-0.355 -0.45,-0.5045c-0.113,-0.1495 -0.169,-0.3925 -0.169,-0.7289l2.981,0c0.225,0 0.432,0.0935 0.619,0.2804c0.188,0.1495 0.281,0.355 0.281,0.6167c0,-0.5981 0.3,-0.8971 0.9,-0.8971l15.245,0c0,0.3364 -0.075,0.5794 -0.225,0.7289c-0.113,0.1495 -0.244,0.3177 -0.394,0.5045c-0.15,0.1495 -0.3,0.3925 -0.45,0.7289c-0.112,0.299 -0.169,0.7848 -0.169,1.4576l0,7.4564c-1.312,0 -2.325,-0.2429 -3.037,-0.7288c-0.675,-0.5233 -1.182,-1.1026 -1.519,-1.738c-0.413,-0.7101 -0.638,-1.551 -0.675,-2.5228l0,-1.738c0,-0.4111 -0.15,-0.7662 -0.45,-1.0652c-0.3,-0.299 -0.656,-0.4672 -1.069,-0.5045l-4.05,0c-0.413,0.0373 -0.769,0.2055 -1.069,0.5045c-0.3,0.299 -0.45,0.6541 -0.45,1.0652l0,12.6143c0,0.4111 0.15,0.7662 0.45,1.0652c0.3,0.299 0.656,0.4485 1.069,0.4485l0.394,0c0.412,0 0.75,-0.1495 1.012,-0.4485c0.3,-0.299 0.45,-0.6541 0.45,-1.0652l0,-0.0561c0.038,-0.5606 0.188,-1.0465 0.45,-1.4576c0.225,-0.3738 0.563,-0.7102 1.013,-1.0092c0.45,-0.299 1.106,-0.4485 1.969,-0.4485l0,11.6051c-0.863,0 -1.519,-0.1495 -1.969,-0.4485c-0.45,-0.299 -0.788,-0.6354 -1.013,-1.0091c-0.262,-0.4112 -0.412,-0.897 -0.45,-1.4577c0,-0.4111 -0.15,-0.7662 -0.45,-1.0652c-0.262,-0.299 -0.6,-0.4672 -1.012,-0.5045l-0.394,0c-0.413,0.0373 -0.769,0.2055 -1.069,0.5045c-0.3,0.299 -0.45,0.6541 -0.45,1.0652l0,12.6143c0,0.4111 0.15,0.7662 0.45,1.0652c0.3,0.299 0.656,0.4485 1.069,0.4485l4.05,0c0.413,0 0.769,-0.1495 1.069,-0.4485c0.3,-0.299 0.45,-0.6541 0.45,-1.0652l0,-1.7941c0.037,-0.9343 0.262,-1.7566 0.675,-2.4667c0.337,-0.6354 0.844,-1.2147 1.519,-1.738c0.712,-0.5233 1.725,-0.7849 3.037,-0.7849l0,7.5125zm-14.513,-18.8373c0,-0.1869 -0.019,-0.3924 -0.056,-0.6167c0,-0.2242 0,-0.4485 0,-0.6727l0,-1.2334c-0.038,-0.8223 -0.056,-1.6072 -0.056,-2.3547c0,-0.7475 -0.019,-1.4576 -0.057,-2.1304c-0.037,-0.299 -0.056,-0.598 -0.056,-0.897c0,-0.299 -0.019,-0.5793 -0.056,-0.841c0,-0.299 -0.019,-0.5606 -0.056,-0.7848c0,-0.2243 0,-0.4299 0,-0.6167c0,-0.1869 -0.019,-0.3551 -0.057,-0.5046c0,-0.1495 0,-0.2803 0,-0.3924l0,-0.2804c-0.037,0 -0.056,0.0187 -0.056,0.0561l0,0.2243c0,0.1121 -0.019,0.2429 -0.056,0.3924c0,0.1495 0,0.3177 0,0.5046c0,0.1868 -0.019,0.3924 -0.056,0.6167c0,0.2242 0,0.4858 0,0.7848c-0.038,0.2617 -0.057,0.542 -0.057,0.841c0,0.299 -0.018,0.598 -0.056,0.897c-0.037,0.6728 -0.056,1.3829 -0.056,2.1304c0,0.7475 -0.019,1.5324 -0.056,2.3547l0,1.2334c0,0.2242 -0.019,0.4485 -0.057,0.6727c0,0.2243 0,0.4298 0,0.6167l0,5.2139c0,0.299 0.019,0.5233 0.057,0.6728l0,1.8501c0,0.4111 0,0.8222 0,1.2334c0.037,0.3737 0.056,0.7475 0.056,1.1212c0,0.4111 0,0.7849 0,1.1213c0.037,0.3364 0.056,0.6727 0.056,1.0091c0.038,0.3364 0.056,0.6541 0.056,0.9531c0,0.2616 0.019,0.5419 0.057,0.8409c0,0.2617 0,0.5046 0,0.7289c0.037,0.2242 0.056,0.4298 0.056,0.6167c0,0.1868 0,0.3737 0,0.5606c0.037,0.1495 0.056,0.2616 0.056,0.3364l0,0.2803c0,0.0374 0.019,0.0561 0.056,0.0561l0,-0.3364c0,-0.0748 0,-0.1869 0,-0.3364c0.038,-0.1869 0.057,-0.3738 0.057,-0.5606c0,-0.1869 0,-0.3925 0,-0.6167c0.037,-0.2243 0.056,-0.4672 0.056,-0.7289c0.037,-0.299 0.056,-0.5793 0.056,-0.8409c0,-0.299 0.019,-0.6167 0.056,-0.9531c0,-0.3364 0,-0.6727 0,-1.0091c0.038,-0.3364 0.057,-0.7102 0.057,-1.1213c0,-0.3737 0,-0.7475 0,-1.1212c0.037,-0.4112 0.056,-0.8223 0.056,-1.2334l0,-1.2334c0,-0.299 0.019,-0.5046 0.056,-0.6167l0,-5.8867z"/>
  <path id="svg_32" fill="#6d6d6d" d="m198.139,88.1246c0.412,0.0748 0.694,0.2056 0.844,0.3925c0.187,0.1868 0.318,0.3737 0.393,0.5606c0.075,0.2242 0.113,0.4672 0.113,0.7288c-1.2,0 -2.325,-0.1495 -3.375,-0.4485c-1.05,-0.299 -1.988,-0.7849 -2.813,-1.4576c-0.787,-0.6728 -1.425,-1.5511 -1.913,-2.635c-0.45,-1.0839 -0.675,-2.4107 -0.675,-3.9805l0,-7.6807c0,-0.4859 -0.018,-1.0839 -0.056,-1.794c-0.037,-0.7101 -0.169,-1.3829 -0.394,-2.0183c-0.225,-0.6354 -0.581,-1.1773 -1.068,-1.6258c-0.45,-0.4859 -1.125,-0.7288 -2.025,-0.7288l-2.307,0c-0.337,0.0747 -0.637,0.2616 -0.9,0.5606c-0.225,0.2616 -0.337,0.5793 -0.337,0.9531l0,13.3991c0,0.6728 0.056,1.1773 0.168,1.5137c0.15,0.299 0.3,0.5419 0.45,0.7288c0.15,0.1495 0.282,0.299 0.394,0.4485c0.15,0.1495 0.225,0.3925 0.225,0.7289l-2.981,0c-0.225,0 -0.432,-0.0935 -0.619,-0.2804c-0.188,-0.1868 -0.281,-0.3924 -0.281,-0.6167c0,0.2243 -0.094,0.4299 -0.282,0.6167c-0.15,0.1869 -0.356,0.2804 -0.618,0.2804l-2.925,0c0,-0.3364 0.056,-0.5794 0.168,-0.7289c0.15,-0.1495 0.3,-0.299 0.45,-0.4485c0.15,-0.1869 0.282,-0.4298 0.394,-0.7288c0.15,-0.299 0.225,-0.7662 0.225,-1.4016l0,-13.6794c-0.112,-1.1587 -0.637,-1.9996 -1.575,-2.5229c0.413,-0.2616 0.938,-0.3924 1.575,-0.3924l0,-16.0341c0,-0.6354 -0.075,-1.1026 -0.225,-1.4016c-0.112,-0.299 -0.244,-0.5233 -0.394,-0.6728c-0.15,-0.1868 -0.3,-0.355 -0.45,-0.5045c-0.112,-0.1495 -0.168,-0.3925 -0.168,-0.7289l2.981,0c0.225,0 0.431,0.0935 0.619,0.2804c0.187,0.1495 0.281,0.355 0.281,0.6167c0,-0.5981 0.3,-0.8971 0.9,-0.8971l5.288,0c1.2,0 2.325,0.2243 3.375,0.6728c1.05,0.4485 1.969,1.0652 2.756,1.8501c0.788,0.7475 1.407,1.6445 1.857,2.691c0.45,1.0465 0.693,2.1491 0.731,3.3078l0,3.6441c0,1.5698 -0.375,3.0087 -1.125,4.3169c-0.75,1.3081 -1.763,2.3546 -3.038,3.1395c1.275,0.7475 2.288,1.794 3.038,3.1395c0.75,1.3082 1.125,2.7471 1.125,4.3169l0,7.4564c0,0.7849 0,1.5885 0,2.4108c0.037,0.7848 0.131,1.5137 0.281,2.1864c0.15,0.6354 0.375,1.1774 0.675,1.6259c0.3,0.4485 0.713,0.7288 1.238,0.8409zm-5.119,-30.3863c-0.038,0.0748 -0.056,0.1682 -0.056,0.2803l0,1.2895c-0.038,0.1495 -0.057,0.299 -0.057,0.4485c0,0.1121 0,0.2242 0,0.3364c0,0.0747 -0.018,0.1308 -0.056,0.1682c0,0.0373 0,0.0934 0,0.1681l0,0.3364c-0.037,0.0748 -0.056,0.1682 -0.056,0.2803c0,0.0748 -0.019,0.1495 -0.056,0.2243c0,0.0747 -0.019,0.1308 -0.057,0.1682l0,0.1121l-0.056,0.1121c0,0 0.038,-0.0187 0.113,-0.056l0,-0.0561l0.056,-0.0561c0.037,-0.0373 0.056,-0.056 0.056,-0.056c0,-0.0374 0.019,-0.0748 0.056,-0.1121c0.038,-0.0748 0.075,-0.1495 0.113,-0.2243c0.037,-0.1121 0.075,-0.2056 0.112,-0.2803c0.038,-0.0748 0.057,-0.1121 0.057,-0.1121c0,-0.0374 0.018,-0.0935 0.056,-0.1682c0.037,-0.0748 0.056,-0.1308 0.056,-0.1682c0,-0.0748 0.019,-0.1495 0.056,-0.2243c0.038,-0.0747 0.057,-0.1308 0.057,-0.1682c0,-0.0373 0.018,-0.0934 0.056,-0.1682c0,-0.0747 0,-0.1308 0,-0.1681c0.037,-0.0748 0.056,-0.1495 0.056,-0.2243c0.038,-0.1495 0.056,-0.299 0.056,-0.4485c0.038,-0.1495 0.075,-0.299 0.113,-0.4485c0.037,-0.1121 0.056,-0.2803 0.056,-0.5046c0,-0.0747 0,-0.1495 0,-0.2242c0.038,-0.0748 0.056,-0.1495 0.056,-0.2243l0,-1.9622c0,-0.2243 -0.018,-0.3924 -0.056,-0.5046l0,-0.2242c0,-0.0748 -0.019,-0.1122 -0.056,-0.1122c0,-0.0373 0,-0.0934 0,-0.1681c0,-0.1869 -0.038,-0.4672 -0.113,-0.841c-0.037,-0.0747 -0.056,-0.1495 -0.056,-0.2242c0,-0.0748 -0.019,-0.1495 -0.056,-0.2243c0,-0.0374 -0.019,-0.0561 -0.056,-0.0561c0,-0.0373 0,-0.0747 0,-0.1121c0,-0.0374 -0.019,-0.056 -0.057,-0.056c0,-0.0374 0,-0.0748 0,-0.1122c-0.037,-0.0747 -0.056,-0.1308 -0.056,-0.1682c0,-0.0373 -0.019,-0.0934 -0.056,-0.1682c-0.038,-0.0747 -0.056,-0.1308 -0.056,-0.1681c0,-0.0374 -0.019,-0.0935 -0.057,-0.1682c-0.037,-0.0374 -0.056,-0.0748 -0.056,-0.1122c0,-0.0373 -0.019,-0.0747 -0.056,-0.1121c-0.075,-0.1495 -0.113,-0.2242 -0.113,-0.2242c-0.037,-0.0374 -0.056,-0.0561 -0.056,-0.0561c0,-0.0374 -0.019,-0.0748 -0.056,-0.1121c-0.038,-0.0374 -0.056,-0.0748 -0.056,-0.1122c-0.038,-0.0373 -0.057,-0.0747 -0.057,-0.1121l-0.056,0c0,0 0.019,0.0374 0.056,0.1121l0,0.1122c0.038,0.0373 0.057,0.1121 0.057,0.2242c0,0.0374 0,0.0748 0,0.1121c0.037,0 0.056,0.0374 0.056,0.1122c0,0.1121 0.019,0.2055 0.056,0.2803l0,0.2803c0,0.0748 0,0.1308 0,0.1682c0.038,0.0374 0.056,0.0934 0.056,0.1682c0,0.3364 0.019,0.598 0.057,0.7849l0,0.897c0.037,0.1869 0.056,0.4859 0.056,0.897l0,2.1304zm-11.588,5.7745c0,-0.1869 -0.019,-0.3924 -0.057,-0.6167c0,-0.2242 0,-0.4485 0,-0.6727l0,-1.2334c-0.037,-0.8223 -0.056,-1.6072 -0.056,-2.3547c0,-0.7475 -0.019,-1.4576 -0.056,-2.1304c-0.038,-0.299 -0.056,-0.598 -0.056,-0.897c0,-0.299 -0.019,-0.5793 -0.057,-0.841c0,-0.299 -0.018,-0.5606 -0.056,-0.7848c0,-0.2243 0,-0.4299 0,-0.6167c0,-0.1869 -0.019,-0.3551 -0.056,-0.5046c0,-0.1495 0,-0.2803 0,-0.3924l0,-0.2804c-0.038,0 -0.056,0.0187 -0.056,0.0561l0,0.2243c0,0.1121 -0.019,0.2429 -0.057,0.3924c0,0.1495 0,0.3177 0,0.5046c0,0.1868 -0.018,0.3924 -0.056,0.6167c0,0.2242 0,0.4858 0,0.7848c-0.037,0.2617 -0.056,0.542 -0.056,0.841c0,0.299 -0.019,0.598 -0.056,0.897c-0.038,0.6728 -0.057,1.3829 -0.057,2.1304c0,0.7475 -0.018,1.5324 -0.056,2.3547l0,1.2334c0,0.2242 -0.019,0.4485 -0.056,0.6727c0,0.2243 0,0.4298 0,0.6167l0,5.2139c0,0.299 0.019,0.5233 0.056,0.6728l0,1.8501c0,0.4111 0,0.8222 0,1.2334c0.038,0.3737 0.056,0.7475 0.056,1.1212c0,0.4111 0,0.7849 0,1.1213c0.038,0.3364 0.057,0.6727 0.057,1.0091c0.037,0.3364 0.056,0.6541 0.056,0.9531c0,0.2616 0.019,0.5419 0.056,0.8409c0,0.2617 0,0.5046 0,0.7289c0.038,0.2242 0.056,0.4298 0.056,0.6167c0,0.1868 0,0.3737 0,0.5606c0.038,0.1495 0.057,0.2616 0.057,0.3364l0,0.2803c0,0.0374 0.018,0.0561 0.056,0.0561l0,-0.3364c0,-0.0748 0,-0.1869 0,-0.3364c0.037,-0.1869 0.056,-0.3738 0.056,-0.5606c0,-0.1869 0,-0.3925 0,-0.6167c0.038,-0.2243 0.056,-0.4672 0.056,-0.7289c0.038,-0.299 0.057,-0.5793 0.057,-0.8409c0,-0.299 0.018,-0.6167 0.056,-0.9531c0,-0.3364 0,-0.6727 0,-1.0091c0.037,-0.3364 0.056,-0.7102 0.056,-1.1213c0,-0.3737 0,-0.7475 0,-1.1212c0.038,-0.4112 0.056,-0.8223 0.056,-1.2334l0,-1.2334c0,-0.299 0.019,-0.5046 0.057,-0.6167l0,-5.8867zm9.281,-8.2413c0,-0.4859 -0.018,-1.0839 -0.056,-1.794c-0.037,-0.7101 -0.169,-1.3829 -0.394,-2.0183c-0.225,-0.6354 -0.581,-1.1773 -1.068,-1.6258c-0.45,-0.4859 -1.125,-0.7288 -2.025,-0.7288l-2.026,0c-0.412,0.0373 -0.768,0.2055 -1.068,0.5045c-0.3,0.299 -0.45,0.6541 -0.45,1.0652l0,12.6143c0,0.4111 0.15,0.7662 0.45,1.0652c0.3,0.299 0.656,0.4485 1.068,0.4485l2.026,0c0.9,0 1.575,-0.2243 2.025,-0.6728c0.487,-0.4485 0.843,-0.9904 1.068,-1.6258c0.225,-0.6728 0.357,-1.3455 0.394,-2.0183c0.038,-0.7101 0.056,-1.3081 0.056,-1.794l0,-3.4199zm3.769,30.7227c0,0 -0.018,-0.0187 -0.056,-0.0561l-0.056,-0.056c-0.038,-0.0748 -0.075,-0.1495 -0.113,-0.2243c0,-0.0747 -0.037,-0.1495 -0.112,-0.2242c-0.038,-0.1122 -0.075,-0.2243 -0.113,-0.3364c-0.037,-0.1495 -0.075,-0.3177 -0.112,-0.5046c-0.075,-0.3737 -0.113,-0.7288 -0.113,-1.0652c-0.037,-0.1869 -0.056,-0.3737 -0.056,-0.5606c0,-0.2243 0,-0.4672 0,-0.7288l0,-2.9714c0,-0.2616 0,-0.5232 0,-0.7849c0,-0.2616 0.019,-0.5419 0.056,-0.8409c0,-0.2617 0,-0.5233 0,-0.7849c0,-0.2616 -0.018,-0.5233 -0.056,-0.7849l0,-0.7849c0,-0.3737 -0.019,-0.6354 -0.056,-0.7849c0,-0.2616 -0.019,-0.5045 -0.056,-0.7288c0,-0.2616 -0.019,-0.5046 -0.057,-0.7288c-0.075,-0.5233 -0.15,-0.9718 -0.225,-1.3455c-0.037,-0.1869 -0.075,-0.3551 -0.112,-0.5046c-0.038,-0.1869 -0.094,-0.3738 -0.169,-0.5606c-0.075,-0.1869 -0.131,-0.3364 -0.169,-0.4485c-0.037,-0.1122 -0.093,-0.2243 -0.168,-0.3364c-0.075,-0.1122 -0.132,-0.2056 -0.169,-0.2803c-0.038,-0.0748 -0.075,-0.1495 -0.113,-0.2243c-0.037,0 -0.075,-0.0187 -0.112,-0.0561c-0.038,0 -0.056,-0.0186 -0.056,-0.056l0.056,0.056c0,0.0374 0.019,0.0748 0.056,0.1122c0,0.0373 0,0.0747 0,0.1121c0.038,0 0.056,0.0374 0.056,0.1121c0.038,0.0374 0.057,0.0748 0.057,0.1121c0,0.0374 0.018,0.0935 0.056,0.1682c0.037,0.1495 0.094,0.4112 0.169,0.7849c0.037,0.1869 0.056,0.3738 0.056,0.5607c0.037,0.1868 0.075,0.3737 0.112,0.5606c0,0.1869 0,0.3924 0,0.6167c0.038,0.1869 0.057,0.4111 0.057,0.6727l0,6.9519c0,0.1495 0,0.2803 0,0.3924c0.037,0.1122 0.056,0.243 0.056,0.3925c0,0.2616 0,0.5232 0,0.7849c0.037,0.2242 0.075,0.4485 0.112,0.6727c0.038,0.2243 0.057,0.4485 0.057,0.6728c0.037,0.2242 0.075,0.4298 0.112,0.6167c0.075,0.2242 0.131,0.4298 0.169,0.6167c0.037,0.1495 0.094,0.3177 0.169,0.5046c0.075,0.1868 0.131,0.3363 0.168,0.4485c0.038,0.1121 0.094,0.2242 0.169,0.3363l0.113,0.1122c0.037,0.0373 0.056,0.0747 0.056,0.1121c0,0 0.019,0.0187 0.056,0.0561l0.225,0.2242l0.056,0z"/>
  <ellipse id="svg_33" fill="#999591" transform="matrix(1,0,0,-1,210.947,67.0288) " ry="3.00339" rx="3.01354"/>
  <ellipse id="svg_34" fill="#999591" transform="matrix(1,0,0,-1,19.0857,67.0288) " ry="3.00339" rx="3.01354"/>
 </g>
</svg>